<mxfile host="65bd71144e">
    <diagram id="N1QIhR7URNE57AfzcR_F" name="Page-1">
        <mxGraphModel dx="2567" dy="2652" grid="1" gridSize="10" guides="1" tooltips="1" connect="1" arrows="1" fold="1" page="1" pageScale="1" pageWidth="827" pageHeight="1169" math="0" shadow="0">
            <root>
                <mxCell id="0"/>
                <mxCell id="1" parent="0"/>
                <mxCell id="2" value="" style="strokeWidth=1;shadow=0;dashed=0;align=center;html=1;shape=mxgraph.mockup.containers.browserWindow;rSize=0;strokeColor=#666666;strokeColor2=#008cff;strokeColor3=#c4c4c4;mainText=,;recursiveResize=0;" parent="1" vertex="1">
                    <mxGeometry x="-640" y="-1320" width="1530" height="2510" as="geometry"/>
                </mxCell>
                <mxCell id="3" value="The Library" style="strokeWidth=1;shadow=0;dashed=0;align=center;html=1;shape=mxgraph.mockup.containers.anchor;fontSize=17;fontColor=#666666;align=left;" parent="2" vertex="1">
                    <mxGeometry x="60" y="12" width="110" height="26" as="geometry"/>
                </mxCell>
                <mxCell id="4" value="mov-lib.io" style="strokeWidth=1;shadow=0;dashed=0;align=center;html=1;shape=mxgraph.mockup.containers.anchor;rSize=0;fontSize=17;fontColor=#666666;align=left;" parent="2" vertex="1">
                    <mxGeometry x="130" y="60" width="250" height="26" as="geometry"/>
                </mxCell>
                <mxCell id="10" value="" style="shape=mxgraph.mockup.containers.marginRect;rectMarginTop=10;strokeColor=#666666;strokeWidth=1;dashed=0;rounded=1;arcSize=5;recursiveResize=0;" parent="2" vertex="1">
                    <mxGeometry y="100" width="270" height="2410" as="geometry"/>
                </mxCell>
                <mxCell id="13" value="" style="shape=mxgraph.mockup.containers.marginRect;rectMarginTop=10;strokeColor=#666666;strokeWidth=1;dashed=0;rounded=1;arcSize=5;recursiveResize=0;" parent="2" vertex="1">
                    <mxGeometry x="270" y="100" width="1260" height="90" as="geometry"/>
                </mxCell>
                <mxCell id="21" value="" style="group" parent="2" vertex="1" connectable="0">
                    <mxGeometry x="50" y="120" width="80" height="80" as="geometry"/>
                </mxCell>
                <mxCell id="19" value="" style="verticalLabelPosition=bottom;shadow=0;dashed=0;align=center;html=1;verticalAlign=top;strokeWidth=1;shape=mxgraph.mockup.graphics.simpleIcon;strokeColor=#999999;" parent="21" vertex="1">
                    <mxGeometry width="80" height="80" as="geometry"/>
                </mxCell>
                <mxCell id="20" value="Logo" style="text;html=1;strokeColor=none;fillColor=none;align=center;verticalAlign=middle;whiteSpace=wrap;rounded=0;" parent="21" vertex="1">
                    <mxGeometry x="20" y="30" width="40" height="20" as="geometry"/>
                </mxCell>
                <mxCell id="22" value="" style="verticalLabelPosition=bottom;shadow=0;dashed=0;align=center;html=1;verticalAlign=top;strokeWidth=1;shape=mxgraph.mockup.navigation.scrollBar;strokeColor=#999999;barPos=58.026;fillColor2=#99ddff;strokeColor2=none;direction=north;" parent="2" vertex="1">
                    <mxGeometry x="1510" y="190" width="20" height="2320" as="geometry"/>
                </mxCell>
                <mxCell id="33" value="" style="group" parent="2" vertex="1" connectable="0">
                    <mxGeometry x="35" y="340" width="160" height="40" as="geometry"/>
                </mxCell>
                <mxCell id="34" value="" style="verticalLabelPosition=bottom;shadow=0;dashed=0;align=center;html=1;verticalAlign=top;strokeWidth=1;shape=mxgraph.mockup.graphics.simpleIcon;strokeColor=#999999;" parent="33" vertex="1">
                    <mxGeometry width="160" height="40" as="geometry"/>
                </mxCell>
                <mxCell id="35" value="" style="verticalLabelPosition=bottom;shadow=0;dashed=0;align=center;html=1;verticalAlign=top;strokeWidth=1;shape=mxgraph.mockup.graphics.simpleIcon;strokeColor=#999999;" parent="33" vertex="1">
                    <mxGeometry x="10" y="5" width="30" height="30" as="geometry"/>
                </mxCell>
                <mxCell id="36" value="Icon" style="text;html=1;strokeColor=none;fillColor=none;align=center;verticalAlign=middle;whiteSpace=wrap;rounded=0;" parent="33" vertex="1">
                    <mxGeometry x="5" y="10" width="40" height="20" as="geometry"/>
                </mxCell>
                <mxCell id="37" value="Menu Item 2" style="text;html=1;strokeColor=none;fillColor=none;align=center;verticalAlign=middle;whiteSpace=wrap;rounded=0;" parent="33" vertex="1">
                    <mxGeometry x="60" y="10" width="70" height="20" as="geometry"/>
                </mxCell>
                <mxCell id="63" value="" style="group" parent="2" vertex="1" connectable="0">
                    <mxGeometry x="35" y="400" width="160" height="40" as="geometry"/>
                </mxCell>
                <mxCell id="64" value="" style="verticalLabelPosition=bottom;shadow=0;dashed=0;align=center;html=1;verticalAlign=top;strokeWidth=1;shape=mxgraph.mockup.graphics.simpleIcon;strokeColor=#999999;" parent="63" vertex="1">
                    <mxGeometry width="160" height="40" as="geometry"/>
                </mxCell>
                <mxCell id="65" value="" style="verticalLabelPosition=bottom;shadow=0;dashed=0;align=center;html=1;verticalAlign=top;strokeWidth=1;shape=mxgraph.mockup.graphics.simpleIcon;strokeColor=#999999;" parent="63" vertex="1">
                    <mxGeometry x="10" y="5" width="30" height="30" as="geometry"/>
                </mxCell>
                <mxCell id="66" value="Icon" style="text;html=1;strokeColor=none;fillColor=none;align=center;verticalAlign=middle;whiteSpace=wrap;rounded=0;" parent="63" vertex="1">
                    <mxGeometry x="5" y="10" width="40" height="20" as="geometry"/>
                </mxCell>
                <mxCell id="67" value="Menu Item 3" style="text;html=1;strokeColor=none;fillColor=none;align=center;verticalAlign=middle;whiteSpace=wrap;rounded=0;" parent="63" vertex="1">
                    <mxGeometry x="60" y="10" width="70" height="20" as="geometry"/>
                </mxCell>
                <mxCell id="58" value="" style="group" parent="2" vertex="1" connectable="0">
                    <mxGeometry x="35" y="460" width="160" height="40" as="geometry"/>
                </mxCell>
                <mxCell id="59" value="" style="verticalLabelPosition=bottom;shadow=0;dashed=0;align=center;html=1;verticalAlign=top;strokeWidth=1;shape=mxgraph.mockup.graphics.simpleIcon;strokeColor=#999999;" parent="58" vertex="1">
                    <mxGeometry width="160" height="40" as="geometry"/>
                </mxCell>
                <mxCell id="60" value="" style="verticalLabelPosition=bottom;shadow=0;dashed=0;align=center;html=1;verticalAlign=top;strokeWidth=1;shape=mxgraph.mockup.graphics.simpleIcon;strokeColor=#999999;" parent="58" vertex="1">
                    <mxGeometry x="10" y="5" width="30" height="30" as="geometry"/>
                </mxCell>
                <mxCell id="61" value="Icon" style="text;html=1;strokeColor=none;fillColor=none;align=center;verticalAlign=middle;whiteSpace=wrap;rounded=0;" parent="58" vertex="1">
                    <mxGeometry x="5" y="10" width="40" height="20" as="geometry"/>
                </mxCell>
                <mxCell id="62" value="Menu Item 4" style="text;html=1;strokeColor=none;fillColor=none;align=center;verticalAlign=middle;whiteSpace=wrap;rounded=0;" parent="58" vertex="1">
                    <mxGeometry x="60" y="10" width="70" height="20" as="geometry"/>
                </mxCell>
                <mxCell id="53" value="" style="group;rounded=0;" parent="2" vertex="1" connectable="0">
                    <mxGeometry x="35" y="520" width="160" height="40" as="geometry"/>
                </mxCell>
                <mxCell id="54" value="" style="verticalLabelPosition=bottom;shadow=0;dashed=0;align=center;html=1;verticalAlign=top;strokeWidth=1;shape=mxgraph.mockup.graphics.simpleIcon;strokeColor=#999999;" parent="53" vertex="1">
                    <mxGeometry width="160" height="40" as="geometry"/>
                </mxCell>
                <mxCell id="55" value="" style="verticalLabelPosition=bottom;shadow=0;dashed=0;align=center;html=1;verticalAlign=top;strokeWidth=1;shape=mxgraph.mockup.graphics.simpleIcon;strokeColor=#999999;" parent="53" vertex="1">
                    <mxGeometry x="10" y="5" width="30" height="30" as="geometry"/>
                </mxCell>
                <mxCell id="56" value="Icon" style="text;html=1;strokeColor=none;fillColor=none;align=center;verticalAlign=middle;whiteSpace=wrap;rounded=0;" parent="53" vertex="1">
                    <mxGeometry x="5" y="10" width="40" height="20" as="geometry"/>
                </mxCell>
                <mxCell id="57" value="Menu Item 5" style="text;html=1;strokeColor=none;fillColor=none;align=center;verticalAlign=middle;whiteSpace=wrap;rounded=0;" parent="53" vertex="1">
                    <mxGeometry x="60" y="10" width="70" height="20" as="geometry"/>
                </mxCell>
                <mxCell id="28" value="" style="group" parent="2" vertex="1" connectable="0">
                    <mxGeometry x="35" y="280" width="160" height="40" as="geometry"/>
                </mxCell>
                <mxCell id="29" value="" style="verticalLabelPosition=bottom;shadow=0;dashed=0;align=center;html=1;verticalAlign=top;strokeWidth=1;shape=mxgraph.mockup.graphics.simpleIcon;strokeColor=#999999;" parent="28" vertex="1">
                    <mxGeometry width="160" height="40" as="geometry"/>
                </mxCell>
                <mxCell id="30" value="" style="verticalLabelPosition=bottom;shadow=0;dashed=0;align=center;html=1;verticalAlign=top;strokeWidth=1;shape=mxgraph.mockup.graphics.simpleIcon;strokeColor=#999999;" parent="28" vertex="1">
                    <mxGeometry x="10" y="5" width="30" height="30" as="geometry"/>
                </mxCell>
                <mxCell id="31" value="Icon" style="text;html=1;strokeColor=none;fillColor=none;align=center;verticalAlign=middle;whiteSpace=wrap;rounded=0;" parent="28" vertex="1">
                    <mxGeometry x="5" y="10" width="40" height="20" as="geometry"/>
                </mxCell>
                <mxCell id="32" value="Menu Item 1" style="text;html=1;strokeColor=none;fillColor=none;align=center;verticalAlign=middle;whiteSpace=wrap;rounded=0;" parent="28" vertex="1">
                    <mxGeometry x="60" y="10" width="70" height="20" as="geometry"/>
                </mxCell>
                <mxCell id="75" value="" style="verticalLabelPosition=bottom;shadow=0;dashed=0;align=center;html=1;verticalAlign=top;strokeWidth=1;shape=mxgraph.mockup.graphics.simpleIcon;strokeColor=#999999;" parent="2" vertex="1">
                    <mxGeometry x="35" y="240" width="100" height="20" as="geometry"/>
                </mxCell>
                <mxCell id="77" value="Menu Header 1" style="text;html=1;strokeColor=none;fillColor=none;align=center;verticalAlign=middle;whiteSpace=wrap;rounded=0;" parent="2" vertex="1">
                    <mxGeometry x="30" y="240" width="110" height="20" as="geometry"/>
                </mxCell>
                <mxCell id="132" value="" style="group" parent="2" vertex="1" connectable="0">
                    <mxGeometry x="35" y="690" width="160" height="40" as="geometry"/>
                </mxCell>
                <mxCell id="133" value="" style="verticalLabelPosition=bottom;shadow=0;dashed=0;align=center;html=1;verticalAlign=top;strokeWidth=1;shape=mxgraph.mockup.graphics.simpleIcon;strokeColor=#999999;" parent="132" vertex="1">
                    <mxGeometry width="160" height="40" as="geometry"/>
                </mxCell>
                <mxCell id="134" value="" style="verticalLabelPosition=bottom;shadow=0;dashed=0;align=center;html=1;verticalAlign=top;strokeWidth=1;shape=mxgraph.mockup.graphics.simpleIcon;strokeColor=#999999;" parent="132" vertex="1">
                    <mxGeometry x="10" y="5" width="30" height="30" as="geometry"/>
                </mxCell>
                <mxCell id="135" value="Icon" style="text;html=1;strokeColor=none;fillColor=none;align=center;verticalAlign=middle;whiteSpace=wrap;rounded=0;" parent="132" vertex="1">
                    <mxGeometry x="5" y="10" width="40" height="20" as="geometry"/>
                </mxCell>
                <mxCell id="136" value="Menu Item 2" style="text;html=1;strokeColor=none;fillColor=none;align=center;verticalAlign=middle;whiteSpace=wrap;rounded=0;" parent="132" vertex="1">
                    <mxGeometry x="60" y="10" width="70" height="20" as="geometry"/>
                </mxCell>
                <mxCell id="137" value="" style="group" parent="2" vertex="1" connectable="0">
                    <mxGeometry x="35" y="750" width="160" height="40" as="geometry"/>
                </mxCell>
                <mxCell id="138" value="" style="verticalLabelPosition=bottom;shadow=0;dashed=0;align=center;html=1;verticalAlign=top;strokeWidth=1;shape=mxgraph.mockup.graphics.simpleIcon;strokeColor=#999999;" parent="137" vertex="1">
                    <mxGeometry width="160" height="40" as="geometry"/>
                </mxCell>
                <mxCell id="139" value="" style="verticalLabelPosition=bottom;shadow=0;dashed=0;align=center;html=1;verticalAlign=top;strokeWidth=1;shape=mxgraph.mockup.graphics.simpleIcon;strokeColor=#999999;" parent="137" vertex="1">
                    <mxGeometry x="10" y="5" width="30" height="30" as="geometry"/>
                </mxCell>
                <mxCell id="140" value="Icon" style="text;html=1;strokeColor=none;fillColor=none;align=center;verticalAlign=middle;whiteSpace=wrap;rounded=0;" parent="137" vertex="1">
                    <mxGeometry x="5" y="10" width="40" height="20" as="geometry"/>
                </mxCell>
                <mxCell id="141" value="Menu Item 3" style="text;html=1;strokeColor=none;fillColor=none;align=center;verticalAlign=middle;whiteSpace=wrap;rounded=0;" parent="137" vertex="1">
                    <mxGeometry x="60" y="10" width="70" height="20" as="geometry"/>
                </mxCell>
                <mxCell id="142" value="" style="group" parent="2" vertex="1" connectable="0">
                    <mxGeometry x="35" y="810" width="160" height="40" as="geometry"/>
                </mxCell>
                <mxCell id="143" value="" style="verticalLabelPosition=bottom;shadow=0;dashed=0;align=center;html=1;verticalAlign=top;strokeWidth=1;shape=mxgraph.mockup.graphics.simpleIcon;strokeColor=#999999;" parent="142" vertex="1">
                    <mxGeometry width="160" height="40" as="geometry"/>
                </mxCell>
                <mxCell id="144" value="" style="verticalLabelPosition=bottom;shadow=0;dashed=0;align=center;html=1;verticalAlign=top;strokeWidth=1;shape=mxgraph.mockup.graphics.simpleIcon;strokeColor=#999999;" parent="142" vertex="1">
                    <mxGeometry x="10" y="5" width="30" height="30" as="geometry"/>
                </mxCell>
                <mxCell id="145" value="Icon" style="text;html=1;strokeColor=none;fillColor=none;align=center;verticalAlign=middle;whiteSpace=wrap;rounded=0;" parent="142" vertex="1">
                    <mxGeometry x="5" y="10" width="40" height="20" as="geometry"/>
                </mxCell>
                <mxCell id="146" value="Menu Item 4" style="text;html=1;strokeColor=none;fillColor=none;align=center;verticalAlign=middle;whiteSpace=wrap;rounded=0;" parent="142" vertex="1">
                    <mxGeometry x="60" y="10" width="70" height="20" as="geometry"/>
                </mxCell>
                <mxCell id="147" value="" style="group" parent="2" vertex="1" connectable="0">
                    <mxGeometry x="35" y="870" width="160" height="40" as="geometry"/>
                </mxCell>
                <mxCell id="148" value="" style="verticalLabelPosition=bottom;shadow=0;dashed=0;align=center;html=1;verticalAlign=top;strokeWidth=1;shape=mxgraph.mockup.graphics.simpleIcon;strokeColor=#999999;" parent="147" vertex="1">
                    <mxGeometry width="160" height="40" as="geometry"/>
                </mxCell>
                <mxCell id="149" value="" style="verticalLabelPosition=bottom;shadow=0;dashed=0;align=center;html=1;verticalAlign=top;strokeWidth=1;shape=mxgraph.mockup.graphics.simpleIcon;strokeColor=#999999;" parent="147" vertex="1">
                    <mxGeometry x="10" y="5" width="30" height="30" as="geometry"/>
                </mxCell>
                <mxCell id="150" value="Icon" style="text;html=1;strokeColor=none;fillColor=none;align=center;verticalAlign=middle;whiteSpace=wrap;rounded=0;" parent="147" vertex="1">
                    <mxGeometry x="5" y="10" width="40" height="20" as="geometry"/>
                </mxCell>
                <mxCell id="151" value="Menu Item 5" style="text;html=1;strokeColor=none;fillColor=none;align=center;verticalAlign=middle;whiteSpace=wrap;rounded=0;" parent="147" vertex="1">
                    <mxGeometry x="60" y="10" width="70" height="20" as="geometry"/>
                </mxCell>
                <mxCell id="152" value="" style="group" parent="2" vertex="1" connectable="0">
                    <mxGeometry x="35" y="630" width="160" height="40" as="geometry"/>
                </mxCell>
                <mxCell id="153" value="" style="verticalLabelPosition=bottom;shadow=0;dashed=0;align=center;html=1;verticalAlign=top;strokeWidth=1;shape=mxgraph.mockup.graphics.simpleIcon;strokeColor=#999999;" parent="152" vertex="1">
                    <mxGeometry width="160" height="40" as="geometry"/>
                </mxCell>
                <mxCell id="154" value="" style="verticalLabelPosition=bottom;shadow=0;dashed=0;align=center;html=1;verticalAlign=top;strokeWidth=1;shape=mxgraph.mockup.graphics.simpleIcon;strokeColor=#999999;" parent="152" vertex="1">
                    <mxGeometry x="10" y="5" width="30" height="30" as="geometry"/>
                </mxCell>
                <mxCell id="155" value="Icon" style="text;html=1;strokeColor=none;fillColor=none;align=center;verticalAlign=middle;whiteSpace=wrap;rounded=0;" parent="152" vertex="1">
                    <mxGeometry x="5" y="10" width="40" height="20" as="geometry"/>
                </mxCell>
                <mxCell id="156" value="Menu Item 1" style="text;html=1;strokeColor=none;fillColor=none;align=center;verticalAlign=middle;whiteSpace=wrap;rounded=0;" parent="152" vertex="1">
                    <mxGeometry x="60" y="10" width="70" height="20" as="geometry"/>
                </mxCell>
                <mxCell id="157" value="" style="verticalLabelPosition=bottom;shadow=0;dashed=0;align=center;html=1;verticalAlign=top;strokeWidth=1;shape=mxgraph.mockup.graphics.simpleIcon;strokeColor=#999999;" parent="2" vertex="1">
                    <mxGeometry x="35" y="590" width="100" height="20" as="geometry"/>
                </mxCell>
                <mxCell id="158" value="Menu Header 2" style="text;html=1;strokeColor=none;fillColor=none;align=center;verticalAlign=middle;whiteSpace=wrap;rounded=0;" parent="2" vertex="1">
                    <mxGeometry x="30" y="590" width="110" height="20" as="geometry"/>
                </mxCell>
                <mxCell id="164" value="" style="shape=mxgraph.mockup.containers.marginRect;rectMarginTop=10;strokeColor=#666666;strokeWidth=1;dashed=0;rounded=1;arcSize=5;recursiveResize=0;" parent="2" vertex="1">
                    <mxGeometry x="270" y="180" width="1240" height="2330" as="geometry"/>
                </mxCell>
                <mxCell id="343" value="" style="group" parent="2" vertex="1" connectable="0">
                    <mxGeometry x="370" y="340" width="1040" height="850" as="geometry"/>
                </mxCell>
                <mxCell id="291" value="" style="group" parent="343" vertex="1" connectable="0">
                    <mxGeometry x="540.8000000000001" width="228.8" height="392.30769230769226" as="geometry"/>
                </mxCell>
                <mxCell id="292" value="" style="group" parent="291" vertex="1" connectable="0">
                    <mxGeometry width="228.8" height="392.30769230769226" as="geometry"/>
                </mxCell>
                <mxCell id="293" value="Movie Name" style="verticalLabelPosition=bottom;shadow=0;dashed=0;align=center;html=1;verticalAlign=top;strokeWidth=1;shape=mxgraph.mockup.graphics.simpleIcon;strokeColor=#999999;" parent="292" vertex="1">
                    <mxGeometry width="228.8" height="392.30769230769226" as="geometry"/>
                </mxCell>
                <mxCell id="294" value="Movie Poster" style="text;html=1;strokeColor=none;fillColor=none;align=center;verticalAlign=middle;whiteSpace=wrap;rounded=0;" parent="292" vertex="1">
                    <mxGeometry x="68.64" y="171.63461538461536" width="91.52000000000001" height="49.03846153846153" as="geometry"/>
                </mxCell>
                <mxCell id="295" value="" style="verticalLabelPosition=bottom;shadow=0;dashed=0;align=center;html=1;verticalAlign=top;strokeWidth=1;shape=mxgraph.mockup.graphics.simpleIcon;strokeColor=#999999;" parent="291" vertex="1">
                    <mxGeometry x="160.16" width="45.760000000000005" height="49.03846153846153" as="geometry"/>
                </mxCell>
                <mxCell id="296" value="" style="verticalLabelPosition=bottom;shadow=0;dashed=0;align=center;html=1;verticalAlign=top;strokeWidth=1;shape=mxgraph.mockup.graphics.simpleIcon;strokeColor=#999999;" parent="291" vertex="1">
                    <mxGeometry x="22.880000000000003" width="45.760000000000005" height="49.03846153846153" as="geometry"/>
                </mxCell>
                <mxCell id="297" value="" style="group" parent="343" vertex="1" connectable="0">
                    <mxGeometry x="811.2" width="228.8" height="392.30769230769226" as="geometry"/>
                </mxCell>
                <mxCell id="298" value="" style="group" parent="297" vertex="1" connectable="0">
                    <mxGeometry width="228.8" height="392.30769230769226" as="geometry"/>
                </mxCell>
                <mxCell id="299" value="Movie Name" style="verticalLabelPosition=bottom;shadow=0;dashed=0;align=center;html=1;verticalAlign=top;strokeWidth=1;shape=mxgraph.mockup.graphics.simpleIcon;strokeColor=#999999;" parent="298" vertex="1">
                    <mxGeometry width="228.8" height="392.30769230769226" as="geometry"/>
                </mxCell>
                <mxCell id="300" value="Movie Poster" style="text;html=1;strokeColor=none;fillColor=none;align=center;verticalAlign=middle;whiteSpace=wrap;rounded=0;" parent="298" vertex="1">
                    <mxGeometry x="68.64" y="171.63461538461536" width="91.52000000000001" height="49.03846153846153" as="geometry"/>
                </mxCell>
                <mxCell id="301" value="" style="verticalLabelPosition=bottom;shadow=0;dashed=0;align=center;html=1;verticalAlign=top;strokeWidth=1;shape=mxgraph.mockup.graphics.simpleIcon;strokeColor=#999999;" parent="297" vertex="1">
                    <mxGeometry x="160.16" width="45.760000000000005" height="49.03846153846153" as="geometry"/>
                </mxCell>
                <mxCell id="302" value="" style="verticalLabelPosition=bottom;shadow=0;dashed=0;align=center;html=1;verticalAlign=top;strokeWidth=1;shape=mxgraph.mockup.graphics.simpleIcon;strokeColor=#999999;" parent="297" vertex="1">
                    <mxGeometry x="22.880000000000003" width="45.760000000000005" height="49.03846153846153" as="geometry"/>
                </mxCell>
                <mxCell id="303" value="" style="group" parent="343" vertex="1" connectable="0">
                    <mxGeometry x="270.40000000000003" width="228.8" height="392.30769230769226" as="geometry"/>
                </mxCell>
                <mxCell id="304" value="" style="group" parent="303" vertex="1" connectable="0">
                    <mxGeometry width="228.8" height="392.30769230769226" as="geometry"/>
                </mxCell>
                <mxCell id="305" value="Movie Name" style="verticalLabelPosition=bottom;shadow=0;dashed=0;align=center;html=1;verticalAlign=top;strokeWidth=1;shape=mxgraph.mockup.graphics.simpleIcon;strokeColor=#999999;" parent="304" vertex="1">
                    <mxGeometry width="228.8" height="392.30769230769226" as="geometry"/>
                </mxCell>
                <mxCell id="306" value="Movie Poster" style="text;html=1;strokeColor=none;fillColor=none;align=center;verticalAlign=middle;whiteSpace=wrap;rounded=0;" parent="304" vertex="1">
                    <mxGeometry x="68.64" y="171.63461538461536" width="91.52000000000001" height="49.03846153846153" as="geometry"/>
                </mxCell>
                <mxCell id="307" value="" style="verticalLabelPosition=bottom;shadow=0;dashed=0;align=center;html=1;verticalAlign=top;strokeWidth=1;shape=mxgraph.mockup.graphics.simpleIcon;strokeColor=#999999;" parent="303" vertex="1">
                    <mxGeometry x="160.16" width="45.760000000000005" height="49.03846153846153" as="geometry"/>
                </mxCell>
                <mxCell id="308" value="" style="verticalLabelPosition=bottom;shadow=0;dashed=0;align=center;html=1;verticalAlign=top;strokeWidth=1;shape=mxgraph.mockup.graphics.simpleIcon;strokeColor=#999999;" parent="303" vertex="1">
                    <mxGeometry x="22.880000000000003" width="45.760000000000005" height="49.03846153846153" as="geometry"/>
                </mxCell>
                <mxCell id="312" value="" style="group" parent="343" vertex="1" connectable="0">
                    <mxGeometry x="540.8000000000001" y="457.6923076923077" width="228.8" height="392.30769230769226" as="geometry"/>
                </mxCell>
                <mxCell id="313" value="" style="group" parent="312" vertex="1" connectable="0">
                    <mxGeometry width="228.8" height="392.30769230769226" as="geometry"/>
                </mxCell>
                <mxCell id="314" value="Movie Name" style="verticalLabelPosition=bottom;shadow=0;dashed=0;align=center;html=1;verticalAlign=top;strokeWidth=1;shape=mxgraph.mockup.graphics.simpleIcon;strokeColor=#999999;" parent="313" vertex="1">
                    <mxGeometry width="228.8" height="392.30769230769226" as="geometry"/>
                </mxCell>
                <mxCell id="315" value="Movie Poster" style="text;html=1;strokeColor=none;fillColor=none;align=center;verticalAlign=middle;whiteSpace=wrap;rounded=0;" parent="313" vertex="1">
                    <mxGeometry x="68.64" y="171.63461538461536" width="91.52000000000001" height="49.03846153846153" as="geometry"/>
                </mxCell>
                <mxCell id="316" value="" style="verticalLabelPosition=bottom;shadow=0;dashed=0;align=center;html=1;verticalAlign=top;strokeWidth=1;shape=mxgraph.mockup.graphics.simpleIcon;strokeColor=#999999;" parent="312" vertex="1">
                    <mxGeometry x="160.16" width="45.760000000000005" height="49.03846153846153" as="geometry"/>
                </mxCell>
                <mxCell id="317" value="" style="verticalLabelPosition=bottom;shadow=0;dashed=0;align=center;html=1;verticalAlign=top;strokeWidth=1;shape=mxgraph.mockup.graphics.simpleIcon;strokeColor=#999999;" parent="312" vertex="1">
                    <mxGeometry x="22.880000000000003" width="45.760000000000005" height="49.03846153846153" as="geometry"/>
                </mxCell>
                <mxCell id="318" value="" style="group" parent="343" vertex="1" connectable="0">
                    <mxGeometry x="811.2" y="457.6923076923077" width="228.8" height="392.30769230769226" as="geometry"/>
                </mxCell>
                <mxCell id="319" value="" style="group" parent="318" vertex="1" connectable="0">
                    <mxGeometry width="228.8" height="392.30769230769226" as="geometry"/>
                </mxCell>
                <mxCell id="320" value="Movie Name" style="verticalLabelPosition=bottom;shadow=0;dashed=0;align=center;html=1;verticalAlign=top;strokeWidth=1;shape=mxgraph.mockup.graphics.simpleIcon;strokeColor=#999999;" parent="319" vertex="1">
                    <mxGeometry width="228.8" height="392.30769230769226" as="geometry"/>
                </mxCell>
                <mxCell id="321" value="Movie Poster" style="text;html=1;strokeColor=none;fillColor=none;align=center;verticalAlign=middle;whiteSpace=wrap;rounded=0;" parent="319" vertex="1">
                    <mxGeometry x="68.64" y="171.63461538461536" width="91.52000000000001" height="49.03846153846153" as="geometry"/>
                </mxCell>
                <mxCell id="322" value="" style="verticalLabelPosition=bottom;shadow=0;dashed=0;align=center;html=1;verticalAlign=top;strokeWidth=1;shape=mxgraph.mockup.graphics.simpleIcon;strokeColor=#999999;" parent="318" vertex="1">
                    <mxGeometry x="160.16" width="45.760000000000005" height="49.03846153846153" as="geometry"/>
                </mxCell>
                <mxCell id="323" value="" style="verticalLabelPosition=bottom;shadow=0;dashed=0;align=center;html=1;verticalAlign=top;strokeWidth=1;shape=mxgraph.mockup.graphics.simpleIcon;strokeColor=#999999;" parent="318" vertex="1">
                    <mxGeometry x="22.880000000000003" width="45.760000000000005" height="49.03846153846153" as="geometry"/>
                </mxCell>
                <mxCell id="324" value="" style="group" parent="343" vertex="1" connectable="0">
                    <mxGeometry x="270.40000000000003" y="457.6923076923077" width="228.8" height="392.30769230769226" as="geometry"/>
                </mxCell>
                <mxCell id="325" value="" style="group" parent="324" vertex="1" connectable="0">
                    <mxGeometry width="228.8" height="392.30769230769226" as="geometry"/>
                </mxCell>
                <mxCell id="326" value="Movie Name" style="verticalLabelPosition=bottom;shadow=0;dashed=0;align=center;html=1;verticalAlign=top;strokeWidth=1;shape=mxgraph.mockup.graphics.simpleIcon;strokeColor=#999999;" parent="325" vertex="1">
                    <mxGeometry width="228.8" height="392.30769230769226" as="geometry"/>
                </mxCell>
                <mxCell id="327" value="Movie Poster" style="text;html=1;strokeColor=none;fillColor=none;align=center;verticalAlign=middle;whiteSpace=wrap;rounded=0;" parent="325" vertex="1">
                    <mxGeometry x="68.64" y="171.63461538461536" width="91.52000000000001" height="49.03846153846153" as="geometry"/>
                </mxCell>
                <mxCell id="328" value="" style="verticalLabelPosition=bottom;shadow=0;dashed=0;align=center;html=1;verticalAlign=top;strokeWidth=1;shape=mxgraph.mockup.graphics.simpleIcon;strokeColor=#999999;" parent="324" vertex="1">
                    <mxGeometry x="160.16" width="45.760000000000005" height="49.03846153846153" as="geometry"/>
                </mxCell>
                <mxCell id="329" value="" style="verticalLabelPosition=bottom;shadow=0;dashed=0;align=center;html=1;verticalAlign=top;strokeWidth=1;shape=mxgraph.mockup.graphics.simpleIcon;strokeColor=#999999;" parent="324" vertex="1">
                    <mxGeometry x="22.880000000000003" width="45.760000000000005" height="49.03846153846153" as="geometry"/>
                </mxCell>
                <mxCell id="331" value="" style="group" parent="343" vertex="1" connectable="0">
                    <mxGeometry width="228.8" height="392.30769230769226" as="geometry"/>
                </mxCell>
                <mxCell id="332" value="" style="group" parent="331" vertex="1" connectable="0">
                    <mxGeometry width="228.8" height="392.30769230769226" as="geometry"/>
                </mxCell>
                <mxCell id="333" value="Movie Name" style="verticalLabelPosition=bottom;shadow=0;dashed=0;align=center;html=1;verticalAlign=top;strokeWidth=1;shape=mxgraph.mockup.graphics.simpleIcon;strokeColor=#999999;" parent="332" vertex="1">
                    <mxGeometry width="228.8" height="392.30769230769226" as="geometry"/>
                </mxCell>
                <mxCell id="334" value="Movie Poster" style="text;html=1;strokeColor=none;fillColor=none;align=center;verticalAlign=middle;whiteSpace=wrap;rounded=0;" parent="332" vertex="1">
                    <mxGeometry x="68.64" y="171.63461538461536" width="91.52000000000001" height="49.03846153846153" as="geometry"/>
                </mxCell>
                <mxCell id="335" value="" style="verticalLabelPosition=bottom;shadow=0;dashed=0;align=center;html=1;verticalAlign=top;strokeWidth=1;shape=mxgraph.mockup.graphics.simpleIcon;strokeColor=#999999;" parent="331" vertex="1">
                    <mxGeometry x="160.16" width="45.760000000000005" height="49.03846153846153" as="geometry"/>
                </mxCell>
                <mxCell id="336" value="" style="verticalLabelPosition=bottom;shadow=0;dashed=0;align=center;html=1;verticalAlign=top;strokeWidth=1;shape=mxgraph.mockup.graphics.simpleIcon;strokeColor=#999999;" parent="331" vertex="1">
                    <mxGeometry x="22.880000000000003" width="45.760000000000005" height="49.03846153846153" as="geometry"/>
                </mxCell>
                <mxCell id="337" value="" style="group" parent="343" vertex="1" connectable="0">
                    <mxGeometry y="457.6923076923077" width="228.8" height="392.30769230769226" as="geometry"/>
                </mxCell>
                <mxCell id="338" value="" style="group" parent="337" vertex="1" connectable="0">
                    <mxGeometry width="228.8" height="392.30769230769226" as="geometry"/>
                </mxCell>
                <mxCell id="339" value="Movie Name" style="verticalLabelPosition=bottom;shadow=0;dashed=0;align=center;html=1;verticalAlign=top;strokeWidth=1;shape=mxgraph.mockup.graphics.simpleIcon;strokeColor=#999999;" parent="338" vertex="1">
                    <mxGeometry width="228.8" height="392.30769230769226" as="geometry"/>
                </mxCell>
                <mxCell id="340" value="Movie Poster" style="text;html=1;strokeColor=none;fillColor=none;align=center;verticalAlign=middle;whiteSpace=wrap;rounded=0;" parent="338" vertex="1">
                    <mxGeometry x="68.64" y="171.63461538461536" width="91.52000000000001" height="49.03846153846153" as="geometry"/>
                </mxCell>
                <mxCell id="341" value="" style="verticalLabelPosition=bottom;shadow=0;dashed=0;align=center;html=1;verticalAlign=top;strokeWidth=1;shape=mxgraph.mockup.graphics.simpleIcon;strokeColor=#999999;" parent="337" vertex="1">
                    <mxGeometry x="160.16" width="45.760000000000005" height="49.03846153846153" as="geometry"/>
                </mxCell>
                <mxCell id="342" value="" style="verticalLabelPosition=bottom;shadow=0;dashed=0;align=center;html=1;verticalAlign=top;strokeWidth=1;shape=mxgraph.mockup.graphics.simpleIcon;strokeColor=#999999;" parent="337" vertex="1">
                    <mxGeometry x="22.880000000000003" width="45.760000000000005" height="49.03846153846153" as="geometry"/>
                </mxCell>
                <mxCell id="548" value="Search" style="rounded=1;whiteSpace=wrap;html=1;glass=0;strokeColor=#f0f0f0;fillColor=#2a2a2a;gradientColor=none;verticalAlign=middle;" parent="2" vertex="1">
                    <mxGeometry x="300" y="130" width="1000" height="40" as="geometry"/>
                </mxCell>
                <mxCell id="797" value="" style="group" parent="2" vertex="1" connectable="0">
                    <mxGeometry x="370" y="1365" width="1040" height="850" as="geometry"/>
                </mxCell>
                <mxCell id="798" value="" style="group" parent="797" vertex="1" connectable="0">
                    <mxGeometry x="540.8000000000001" width="228.8" height="392.30769230769226" as="geometry"/>
                </mxCell>
                <mxCell id="799" value="" style="group" parent="798" vertex="1" connectable="0">
                    <mxGeometry width="228.8" height="392.30769230769226" as="geometry"/>
                </mxCell>
                <mxCell id="800" value="Movie Name" style="verticalLabelPosition=bottom;shadow=0;dashed=0;align=center;html=1;verticalAlign=top;strokeWidth=1;shape=mxgraph.mockup.graphics.simpleIcon;strokeColor=#999999;" parent="799" vertex="1">
                    <mxGeometry width="228.8" height="392.30769230769226" as="geometry"/>
                </mxCell>
                <mxCell id="801" value="Movie Poster" style="text;html=1;strokeColor=none;fillColor=none;align=center;verticalAlign=middle;whiteSpace=wrap;rounded=0;" parent="799" vertex="1">
                    <mxGeometry x="68.64" y="171.63461538461536" width="91.52000000000001" height="49.03846153846153" as="geometry"/>
                </mxCell>
                <mxCell id="802" value="" style="verticalLabelPosition=bottom;shadow=0;dashed=0;align=center;html=1;verticalAlign=top;strokeWidth=1;shape=mxgraph.mockup.graphics.simpleIcon;strokeColor=#999999;" parent="798" vertex="1">
                    <mxGeometry x="160.16" width="45.760000000000005" height="49.03846153846153" as="geometry"/>
                </mxCell>
                <mxCell id="803" value="" style="verticalLabelPosition=bottom;shadow=0;dashed=0;align=center;html=1;verticalAlign=top;strokeWidth=1;shape=mxgraph.mockup.graphics.simpleIcon;strokeColor=#999999;" parent="798" vertex="1">
                    <mxGeometry x="22.880000000000003" width="45.760000000000005" height="49.03846153846153" as="geometry"/>
                </mxCell>
                <mxCell id="804" value="" style="group" parent="797" vertex="1" connectable="0">
                    <mxGeometry x="811.2" width="228.8" height="392.30769230769226" as="geometry"/>
                </mxCell>
                <mxCell id="805" value="" style="group" parent="804" vertex="1" connectable="0">
                    <mxGeometry width="228.8" height="392.30769230769226" as="geometry"/>
                </mxCell>
                <mxCell id="806" value="Movie Name" style="verticalLabelPosition=bottom;shadow=0;dashed=0;align=center;html=1;verticalAlign=top;strokeWidth=1;shape=mxgraph.mockup.graphics.simpleIcon;strokeColor=#999999;" parent="805" vertex="1">
                    <mxGeometry width="228.8" height="392.30769230769226" as="geometry"/>
                </mxCell>
                <mxCell id="807" value="Movie Poster" style="text;html=1;strokeColor=none;fillColor=none;align=center;verticalAlign=middle;whiteSpace=wrap;rounded=0;" parent="805" vertex="1">
                    <mxGeometry x="68.64" y="171.63461538461536" width="91.52000000000001" height="49.03846153846153" as="geometry"/>
                </mxCell>
                <mxCell id="808" value="" style="verticalLabelPosition=bottom;shadow=0;dashed=0;align=center;html=1;verticalAlign=top;strokeWidth=1;shape=mxgraph.mockup.graphics.simpleIcon;strokeColor=#999999;" parent="804" vertex="1">
                    <mxGeometry x="160.16" width="45.760000000000005" height="49.03846153846153" as="geometry"/>
                </mxCell>
                <mxCell id="809" value="" style="verticalLabelPosition=bottom;shadow=0;dashed=0;align=center;html=1;verticalAlign=top;strokeWidth=1;shape=mxgraph.mockup.graphics.simpleIcon;strokeColor=#999999;" parent="804" vertex="1">
                    <mxGeometry x="22.880000000000003" width="45.760000000000005" height="49.03846153846153" as="geometry"/>
                </mxCell>
                <mxCell id="810" value="" style="group" parent="797" vertex="1" connectable="0">
                    <mxGeometry x="270.40000000000003" width="228.8" height="392.30769230769226" as="geometry"/>
                </mxCell>
                <mxCell id="811" value="" style="group" parent="810" vertex="1" connectable="0">
                    <mxGeometry width="228.8" height="392.30769230769226" as="geometry"/>
                </mxCell>
                <mxCell id="812" value="Movie Name" style="verticalLabelPosition=bottom;shadow=0;dashed=0;align=center;html=1;verticalAlign=top;strokeWidth=1;shape=mxgraph.mockup.graphics.simpleIcon;strokeColor=#999999;" parent="811" vertex="1">
                    <mxGeometry width="228.8" height="392.30769230769226" as="geometry"/>
                </mxCell>
                <mxCell id="813" value="Movie Poster" style="text;html=1;strokeColor=none;fillColor=none;align=center;verticalAlign=middle;whiteSpace=wrap;rounded=0;" parent="811" vertex="1">
                    <mxGeometry x="68.64" y="171.63461538461536" width="91.52000000000001" height="49.03846153846153" as="geometry"/>
                </mxCell>
                <mxCell id="814" value="" style="verticalLabelPosition=bottom;shadow=0;dashed=0;align=center;html=1;verticalAlign=top;strokeWidth=1;shape=mxgraph.mockup.graphics.simpleIcon;strokeColor=#999999;" parent="810" vertex="1">
                    <mxGeometry x="160.16" width="45.760000000000005" height="49.03846153846153" as="geometry"/>
                </mxCell>
                <mxCell id="815" value="" style="verticalLabelPosition=bottom;shadow=0;dashed=0;align=center;html=1;verticalAlign=top;strokeWidth=1;shape=mxgraph.mockup.graphics.simpleIcon;strokeColor=#999999;" parent="810" vertex="1">
                    <mxGeometry x="22.880000000000003" width="45.760000000000005" height="49.03846153846153" as="geometry"/>
                </mxCell>
                <mxCell id="816" value="" style="group" parent="797" vertex="1" connectable="0">
                    <mxGeometry x="540.8000000000001" y="457.6923076923077" width="228.8" height="392.30769230769226" as="geometry"/>
                </mxCell>
                <mxCell id="817" value="" style="group" parent="816" vertex="1" connectable="0">
                    <mxGeometry width="228.8" height="392.30769230769226" as="geometry"/>
                </mxCell>
                <mxCell id="818" value="Movie Name" style="verticalLabelPosition=bottom;shadow=0;dashed=0;align=center;html=1;verticalAlign=top;strokeWidth=1;shape=mxgraph.mockup.graphics.simpleIcon;strokeColor=#999999;" parent="817" vertex="1">
                    <mxGeometry width="228.8" height="392.30769230769226" as="geometry"/>
                </mxCell>
                <mxCell id="819" value="Movie Poster" style="text;html=1;strokeColor=none;fillColor=none;align=center;verticalAlign=middle;whiteSpace=wrap;rounded=0;" parent="817" vertex="1">
                    <mxGeometry x="68.64" y="171.63461538461536" width="91.52000000000001" height="49.03846153846153" as="geometry"/>
                </mxCell>
                <mxCell id="820" value="" style="verticalLabelPosition=bottom;shadow=0;dashed=0;align=center;html=1;verticalAlign=top;strokeWidth=1;shape=mxgraph.mockup.graphics.simpleIcon;strokeColor=#999999;" parent="816" vertex="1">
                    <mxGeometry x="160.16" width="45.760000000000005" height="49.03846153846153" as="geometry"/>
                </mxCell>
                <mxCell id="821" value="" style="verticalLabelPosition=bottom;shadow=0;dashed=0;align=center;html=1;verticalAlign=top;strokeWidth=1;shape=mxgraph.mockup.graphics.simpleIcon;strokeColor=#999999;" parent="816" vertex="1">
                    <mxGeometry x="22.880000000000003" width="45.760000000000005" height="49.03846153846153" as="geometry"/>
                </mxCell>
                <mxCell id="822" value="" style="group" parent="797" vertex="1" connectable="0">
                    <mxGeometry x="811.2" y="457.6923076923077" width="228.8" height="392.30769230769226" as="geometry"/>
                </mxCell>
                <mxCell id="823" value="" style="group" parent="822" vertex="1" connectable="0">
                    <mxGeometry width="228.8" height="392.30769230769226" as="geometry"/>
                </mxCell>
                <mxCell id="824" value="Movie Name" style="verticalLabelPosition=bottom;shadow=0;dashed=0;align=center;html=1;verticalAlign=top;strokeWidth=1;shape=mxgraph.mockup.graphics.simpleIcon;strokeColor=#999999;" parent="823" vertex="1">
                    <mxGeometry width="228.8" height="392.30769230769226" as="geometry"/>
                </mxCell>
                <mxCell id="825" value="Movie Poster" style="text;html=1;strokeColor=none;fillColor=none;align=center;verticalAlign=middle;whiteSpace=wrap;rounded=0;" parent="823" vertex="1">
                    <mxGeometry x="68.64" y="171.63461538461536" width="91.52000000000001" height="49.03846153846153" as="geometry"/>
                </mxCell>
                <mxCell id="826" value="" style="verticalLabelPosition=bottom;shadow=0;dashed=0;align=center;html=1;verticalAlign=top;strokeWidth=1;shape=mxgraph.mockup.graphics.simpleIcon;strokeColor=#999999;" parent="822" vertex="1">
                    <mxGeometry x="160.16" width="45.760000000000005" height="49.03846153846153" as="geometry"/>
                </mxCell>
                <mxCell id="827" value="" style="verticalLabelPosition=bottom;shadow=0;dashed=0;align=center;html=1;verticalAlign=top;strokeWidth=1;shape=mxgraph.mockup.graphics.simpleIcon;strokeColor=#999999;" parent="822" vertex="1">
                    <mxGeometry x="22.880000000000003" width="45.760000000000005" height="49.03846153846153" as="geometry"/>
                </mxCell>
                <mxCell id="828" value="" style="group" parent="797" vertex="1" connectable="0">
                    <mxGeometry x="270.40000000000003" y="457.6923076923077" width="228.8" height="392.30769230769226" as="geometry"/>
                </mxCell>
                <mxCell id="829" value="" style="group" parent="828" vertex="1" connectable="0">
                    <mxGeometry width="228.8" height="392.30769230769226" as="geometry"/>
                </mxCell>
                <mxCell id="830" value="Movie Name" style="verticalLabelPosition=bottom;shadow=0;dashed=0;align=center;html=1;verticalAlign=top;strokeWidth=1;shape=mxgraph.mockup.graphics.simpleIcon;strokeColor=#999999;" parent="829" vertex="1">
                    <mxGeometry width="228.8" height="392.30769230769226" as="geometry"/>
                </mxCell>
                <mxCell id="831" value="Movie Poster" style="text;html=1;strokeColor=none;fillColor=none;align=center;verticalAlign=middle;whiteSpace=wrap;rounded=0;" parent="829" vertex="1">
                    <mxGeometry x="68.64" y="171.63461538461536" width="91.52000000000001" height="49.03846153846153" as="geometry"/>
                </mxCell>
                <mxCell id="832" value="" style="verticalLabelPosition=bottom;shadow=0;dashed=0;align=center;html=1;verticalAlign=top;strokeWidth=1;shape=mxgraph.mockup.graphics.simpleIcon;strokeColor=#999999;" parent="828" vertex="1">
                    <mxGeometry x="160.16" width="45.760000000000005" height="49.03846153846153" as="geometry"/>
                </mxCell>
                <mxCell id="833" value="" style="verticalLabelPosition=bottom;shadow=0;dashed=0;align=center;html=1;verticalAlign=top;strokeWidth=1;shape=mxgraph.mockup.graphics.simpleIcon;strokeColor=#999999;" parent="828" vertex="1">
                    <mxGeometry x="22.880000000000003" width="45.760000000000005" height="49.03846153846153" as="geometry"/>
                </mxCell>
                <mxCell id="834" value="" style="group" parent="797" vertex="1" connectable="0">
                    <mxGeometry width="228.8" height="392.30769230769226" as="geometry"/>
                </mxCell>
                <mxCell id="835" value="" style="group" parent="834" vertex="1" connectable="0">
                    <mxGeometry width="228.8" height="392.30769230769226" as="geometry"/>
                </mxCell>
                <mxCell id="836" value="Movie Name" style="verticalLabelPosition=bottom;shadow=0;dashed=0;align=center;html=1;verticalAlign=top;strokeWidth=1;shape=mxgraph.mockup.graphics.simpleIcon;strokeColor=#999999;" parent="835" vertex="1">
                    <mxGeometry width="228.8" height="392.30769230769226" as="geometry"/>
                </mxCell>
                <mxCell id="837" value="Movie Poster" style="text;html=1;strokeColor=none;fillColor=none;align=center;verticalAlign=middle;whiteSpace=wrap;rounded=0;" parent="835" vertex="1">
                    <mxGeometry x="68.64" y="171.63461538461536" width="91.52000000000001" height="49.03846153846153" as="geometry"/>
                </mxCell>
                <mxCell id="838" value="" style="verticalLabelPosition=bottom;shadow=0;dashed=0;align=center;html=1;verticalAlign=top;strokeWidth=1;shape=mxgraph.mockup.graphics.simpleIcon;strokeColor=#999999;" parent="834" vertex="1">
                    <mxGeometry x="160.16" width="45.760000000000005" height="49.03846153846153" as="geometry"/>
                </mxCell>
                <mxCell id="839" value="" style="verticalLabelPosition=bottom;shadow=0;dashed=0;align=center;html=1;verticalAlign=top;strokeWidth=1;shape=mxgraph.mockup.graphics.simpleIcon;strokeColor=#999999;" parent="834" vertex="1">
                    <mxGeometry x="22.880000000000003" width="45.760000000000005" height="49.03846153846153" as="geometry"/>
                </mxCell>
                <mxCell id="840" value="" style="group" parent="797" vertex="1" connectable="0">
                    <mxGeometry y="457.6923076923077" width="228.8" height="392.30769230769226" as="geometry"/>
                </mxCell>
                <mxCell id="841" value="" style="group" parent="840" vertex="1" connectable="0">
                    <mxGeometry width="228.8" height="392.30769230769226" as="geometry"/>
                </mxCell>
                <mxCell id="842" value="Movie Name" style="verticalLabelPosition=bottom;shadow=0;dashed=0;align=center;html=1;verticalAlign=top;strokeWidth=1;shape=mxgraph.mockup.graphics.simpleIcon;strokeColor=#999999;" parent="841" vertex="1">
                    <mxGeometry width="228.8" height="392.30769230769226" as="geometry"/>
                </mxCell>
                <mxCell id="843" value="Movie Poster" style="text;html=1;strokeColor=none;fillColor=none;align=center;verticalAlign=middle;whiteSpace=wrap;rounded=0;" parent="841" vertex="1">
                    <mxGeometry x="68.64" y="171.63461538461536" width="91.52000000000001" height="49.03846153846153" as="geometry"/>
                </mxCell>
                <mxCell id="844" value="" style="verticalLabelPosition=bottom;shadow=0;dashed=0;align=center;html=1;verticalAlign=top;strokeWidth=1;shape=mxgraph.mockup.graphics.simpleIcon;strokeColor=#999999;" parent="840" vertex="1">
                    <mxGeometry x="160.16" width="45.760000000000005" height="49.03846153846153" as="geometry"/>
                </mxCell>
                <mxCell id="845" value="" style="verticalLabelPosition=bottom;shadow=0;dashed=0;align=center;html=1;verticalAlign=top;strokeWidth=1;shape=mxgraph.mockup.graphics.simpleIcon;strokeColor=#999999;" parent="840" vertex="1">
                    <mxGeometry x="22.880000000000003" width="45.760000000000005" height="49.03846153846153" as="geometry"/>
                </mxCell>
                <mxCell id="846" value="" style="verticalLabelPosition=bottom;shadow=0;dashed=0;align=center;html=1;verticalAlign=top;strokeWidth=1;shape=mxgraph.mockup.graphics.simpleIcon;strokeColor=#999999;" parent="2" vertex="1">
                    <mxGeometry x="375" y="1310" width="100" height="20" as="geometry"/>
                </mxCell>
                <mxCell id="847" value="Div Header 1" style="text;html=1;strokeColor=none;fillColor=none;align=center;verticalAlign=middle;whiteSpace=wrap;rounded=0;" parent="2" vertex="1">
                    <mxGeometry x="370" y="1310" width="110" height="20" as="geometry"/>
                </mxCell>
                <mxCell id="12" style="edgeStyle=none;html=1;entryX=0;entryY=0.031;entryDx=0;entryDy=0;entryPerimeter=0;" parent="1" source="11" target="10" edge="1">
                    <mxGeometry relative="1" as="geometry">
                        <mxPoint x="-650" y="-1001" as="targetPoint"/>
                    </mxGeometry>
                </mxCell>
                <mxCell id="11" value="Side Navbar" style="shape=rect;strokeColor=none;fillColor=#008cff;strokeWidth=1;dashed=0;rounded=1;arcSize=20;fontColor=#ffffff;fontSize=17;spacing=2;spacingTop=-2;align=center;autosize=1;spacingLeft=4;resizeWidth=0;resizeHeight=0;perimeter=none;" parent="1" vertex="1">
                    <mxGeometry x="-860" y="-1200" width="120" height="40" as="geometry"/>
                </mxCell>
                <mxCell id="16" style="edgeStyle=none;html=1;entryX=1;entryY=0.571;entryDx=0;entryDy=0;entryPerimeter=0;" parent="1" source="14" target="13" edge="1">
                    <mxGeometry relative="1" as="geometry"/>
                </mxCell>
                <mxCell id="14" value="Top Navbar" style="shape=rect;strokeColor=none;fillColor=#008cff;strokeWidth=1;dashed=0;rounded=1;arcSize=20;fontColor=#ffffff;fontSize=17;spacing=2;spacingTop=-2;align=center;autosize=1;spacingLeft=4;resizeWidth=0;resizeHeight=0;perimeter=none;" parent="1" vertex="1">
                    <mxGeometry x="980" y="-1209" width="110" height="40" as="geometry"/>
                </mxCell>
                <mxCell id="27" value="" style="group" parent="1" vertex="1" connectable="0">
                    <mxGeometry x="-827" y="-1700" width="160" height="40" as="geometry"/>
                </mxCell>
                <mxCell id="23" value="" style="verticalLabelPosition=bottom;shadow=0;dashed=0;align=center;html=1;verticalAlign=top;strokeWidth=1;shape=mxgraph.mockup.graphics.simpleIcon;strokeColor=#999999;" parent="27" vertex="1">
                    <mxGeometry width="160" height="40" as="geometry"/>
                </mxCell>
                <mxCell id="24" value="" style="verticalLabelPosition=bottom;shadow=0;dashed=0;align=center;html=1;verticalAlign=top;strokeWidth=1;shape=mxgraph.mockup.graphics.simpleIcon;strokeColor=#999999;" parent="27" vertex="1">
                    <mxGeometry x="10" y="5" width="30" height="30" as="geometry"/>
                </mxCell>
                <mxCell id="25" value="Icon" style="text;html=1;strokeColor=none;fillColor=none;align=center;verticalAlign=middle;whiteSpace=wrap;rounded=0;" parent="27" vertex="1">
                    <mxGeometry x="5" y="10" width="40" height="20" as="geometry"/>
                </mxCell>
                <mxCell id="26" value="Menu Item 1" style="text;html=1;strokeColor=none;fillColor=none;align=center;verticalAlign=middle;whiteSpace=wrap;rounded=0;" parent="27" vertex="1">
                    <mxGeometry x="60" y="10" width="70" height="20" as="geometry"/>
                </mxCell>
                <mxCell id="159" value="" style="group" parent="1" vertex="1" connectable="0">
                    <mxGeometry x="690" y="-1190" width="160" height="40" as="geometry"/>
                </mxCell>
                <mxCell id="160" value="" style="verticalLabelPosition=bottom;shadow=0;dashed=0;align=center;html=1;verticalAlign=top;strokeWidth=1;shape=mxgraph.mockup.graphics.simpleIcon;strokeColor=#999999;" parent="159" vertex="1">
                    <mxGeometry width="160" height="40" as="geometry"/>
                </mxCell>
                <mxCell id="161" value="" style="verticalLabelPosition=bottom;shadow=0;dashed=0;align=center;html=1;verticalAlign=top;strokeWidth=1;shape=mxgraph.mockup.graphics.simpleIcon;strokeColor=#999999;" parent="159" vertex="1">
                    <mxGeometry x="10" y="5" width="30" height="30" as="geometry"/>
                </mxCell>
                <mxCell id="162" value="Icon" style="text;html=1;strokeColor=none;fillColor=none;align=center;verticalAlign=middle;whiteSpace=wrap;rounded=0;" parent="159" vertex="1">
                    <mxGeometry x="5" y="10" width="40" height="20" as="geometry"/>
                </mxCell>
                <mxCell id="163" value="Username" style="text;html=1;strokeColor=none;fillColor=none;align=center;verticalAlign=middle;whiteSpace=wrap;rounded=0;" parent="159" vertex="1">
                    <mxGeometry x="60" y="10" width="70" height="20" as="geometry"/>
                </mxCell>
                <mxCell id="166" style="edgeStyle=none;html=1;entryX=1.001;entryY=0.31;entryDx=0;entryDy=0;entryPerimeter=0;" parent="1" source="165" target="164" edge="1">
                    <mxGeometry relative="1" as="geometry"/>
                </mxCell>
                <mxCell id="165" value="Body" style="shape=rect;strokeColor=none;fillColor=#008cff;strokeWidth=1;dashed=0;rounded=1;arcSize=20;fontColor=#ffffff;fontSize=17;spacing=2;spacingTop=-2;align=center;autosize=1;spacingLeft=4;resizeWidth=0;resizeHeight=0;perimeter=none;" parent="1" vertex="1">
                    <mxGeometry x="1015" y="-820" width="60" height="30" as="geometry"/>
                </mxCell>
                <mxCell id="168" value="Home View" style="shape=rect;strokeColor=none;fillColor=#008cff;strokeWidth=1;dashed=0;rounded=1;arcSize=20;fontColor=#ffffff;fontSize=17;spacing=2;spacingTop=-2;align=center;autosize=1;spacingLeft=4;resizeWidth=0;resizeHeight=0;perimeter=none;" parent="1" vertex="1">
                    <mxGeometry x="55" y="-1395" width="110" height="30" as="geometry"/>
                </mxCell>
                <mxCell id="181" style="edgeStyle=none;html=1;entryX=0.514;entryY=-0.036;entryDx=0;entryDy=0;entryPerimeter=0;" parent="1" source="179" target="177" edge="1">
                    <mxGeometry relative="1" as="geometry"/>
                </mxCell>
                <mxCell id="179" value="Favourite" style="shape=rect;strokeColor=none;fillColor=#008cff;strokeWidth=1;dashed=0;rounded=1;arcSize=20;fontColor=#ffffff;fontSize=17;spacing=2;spacingTop=-2;align=center;autosize=1;spacingLeft=4;resizeWidth=0;resizeHeight=0;perimeter=none;" parent="1" vertex="1">
                    <mxGeometry x="-940" y="-1100" width="90" height="30" as="geometry"/>
                </mxCell>
                <mxCell id="183" style="edgeStyle=none;html=1;entryX=0.58;entryY=0.04;entryDx=0;entryDy=0;entryPerimeter=0;" parent="1" source="182" target="176" edge="1">
                    <mxGeometry relative="1" as="geometry"/>
                </mxCell>
                <mxCell id="182" value="Reviewed" style="shape=rect;strokeColor=none;fillColor=#008cff;strokeWidth=1;dashed=0;rounded=1;arcSize=20;fontColor=#ffffff;fontSize=17;spacing=2;spacingTop=-2;align=center;autosize=1;spacingLeft=4;resizeWidth=0;resizeHeight=0;perimeter=none;" parent="1" vertex="1">
                    <mxGeometry x="-815" y="-1100" width="100" height="30" as="geometry"/>
                </mxCell>
                <mxCell id="290" value="" style="group;rounded=0;" parent="1" vertex="1" connectable="0">
                    <mxGeometry x="-880" y="-1015" width="100" height="160" as="geometry"/>
                </mxCell>
                <mxCell id="174" value="" style="group" parent="290" vertex="1" connectable="0">
                    <mxGeometry width="100" height="160" as="geometry"/>
                </mxCell>
                <mxCell id="169" value="Movie Name" style="verticalLabelPosition=bottom;shadow=0;dashed=0;align=center;html=1;verticalAlign=top;strokeWidth=1;shape=mxgraph.mockup.graphics.simpleIcon;strokeColor=#999999;" parent="174" vertex="1">
                    <mxGeometry width="100" height="160" as="geometry"/>
                </mxCell>
                <mxCell id="170" value="Movie Poster" style="text;html=1;strokeColor=none;fillColor=none;align=center;verticalAlign=middle;whiteSpace=wrap;rounded=0;" parent="174" vertex="1">
                    <mxGeometry x="30" y="70" width="40" height="20" as="geometry"/>
                </mxCell>
                <mxCell id="176" value="" style="verticalLabelPosition=bottom;shadow=0;dashed=0;align=center;html=1;verticalAlign=top;strokeWidth=1;shape=mxgraph.mockup.graphics.simpleIcon;strokeColor=#999999;" parent="290" vertex="1">
                    <mxGeometry x="70" width="20" height="20" as="geometry"/>
                </mxCell>
                <mxCell id="177" value="" style="verticalLabelPosition=bottom;shadow=0;dashed=0;align=center;html=1;verticalAlign=top;strokeWidth=1;shape=mxgraph.mockup.graphics.simpleIcon;strokeColor=#999999;" parent="290" vertex="1">
                    <mxGeometry x="10" width="20" height="20" as="geometry"/>
                </mxCell>
                <mxCell id="345" value="" style="verticalLabelPosition=bottom;shadow=0;dashed=0;align=center;html=1;verticalAlign=top;strokeWidth=1;shape=mxgraph.mockup.graphics.simpleIcon;strokeColor=#999999;" parent="1" vertex="1">
                    <mxGeometry x="-265" y="-1035" width="100" height="20" as="geometry"/>
                </mxCell>
                <mxCell id="346" value="Div Header 1" style="text;html=1;strokeColor=none;fillColor=none;align=center;verticalAlign=middle;whiteSpace=wrap;rounded=0;" parent="1" vertex="1">
                    <mxGeometry x="-270" y="-1035" width="110" height="20" as="geometry"/>
                </mxCell>
                <mxCell id="347" value="" style="strokeWidth=1;shadow=0;dashed=0;align=center;html=1;shape=mxgraph.mockup.containers.browserWindow;rSize=0;strokeColor=#666666;strokeColor2=#008cff;strokeColor3=#c4c4c4;mainText=,;recursiveResize=0;container=0;" parent="1" vertex="1">
                    <mxGeometry x="1120" y="-1320" width="1530" height="1410" as="geometry"/>
                </mxCell>
                <mxCell id="460" value="" style="group" parent="1" vertex="1" connectable="0">
                    <mxGeometry x="2427" y="-1190" width="160" height="40" as="geometry"/>
                </mxCell>
                <mxCell id="461" value="" style="verticalLabelPosition=bottom;shadow=0;dashed=0;align=center;html=1;verticalAlign=top;strokeWidth=1;shape=mxgraph.mockup.graphics.simpleIcon;strokeColor=#999999;" parent="460" vertex="1">
                    <mxGeometry width="160" height="40" as="geometry"/>
                </mxCell>
                <mxCell id="462" value="" style="verticalLabelPosition=bottom;shadow=0;dashed=0;align=center;html=1;verticalAlign=top;strokeWidth=1;shape=mxgraph.mockup.graphics.simpleIcon;strokeColor=#999999;" parent="460" vertex="1">
                    <mxGeometry x="10" y="5" width="30" height="30" as="geometry"/>
                </mxCell>
                <mxCell id="463" value="Icon" style="text;html=1;strokeColor=none;fillColor=none;align=center;verticalAlign=middle;whiteSpace=wrap;rounded=0;" parent="460" vertex="1">
                    <mxGeometry x="5" y="10" width="40" height="20" as="geometry"/>
                </mxCell>
                <mxCell id="464" value="Username" style="text;html=1;strokeColor=none;fillColor=none;align=center;verticalAlign=middle;whiteSpace=wrap;rounded=0;" parent="460" vertex="1">
                    <mxGeometry x="60" y="10" width="70" height="20" as="geometry"/>
                </mxCell>
                <mxCell id="467" value="Detail View" style="shape=rect;strokeColor=none;fillColor=#008cff;strokeWidth=1;dashed=0;rounded=1;arcSize=20;fontColor=#ffffff;fontSize=17;spacing=2;spacingTop=-2;align=center;autosize=1;spacingLeft=4;resizeWidth=0;resizeHeight=0;perimeter=none;" parent="1" vertex="1">
                    <mxGeometry x="1903" y="-1410" width="110" height="30" as="geometry"/>
                </mxCell>
                <mxCell id="469" style="edgeStyle=none;html=1;" parent="1" source="468" target="169" edge="1">
                    <mxGeometry relative="1" as="geometry"/>
                </mxCell>
                <mxCell id="468" value="Image" style="shape=rect;strokeColor=none;fillColor=#008cff;strokeWidth=1;dashed=0;rounded=1;arcSize=20;fontColor=#ffffff;fontSize=17;spacing=2;spacingTop=-2;align=center;autosize=1;spacingLeft=4;resizeWidth=0;resizeHeight=0;perimeter=none;" parent="1" vertex="1">
                    <mxGeometry x="-1040" y="-970" width="70" height="30" as="geometry"/>
                </mxCell>
                <mxCell id="471" value="" style="shape=mxgraph.mockup.containers.marginRect;rectMarginTop=10;strokeColor=#666666;strokeWidth=1;dashed=0;rounded=1;arcSize=5;recursiveResize=0;" parent="1" vertex="1">
                    <mxGeometry x="1500" y="-615" width="1010" height="660" as="geometry"/>
                </mxCell>
                <mxCell id="348" value="The Library" style="strokeWidth=1;shadow=0;dashed=0;align=center;html=1;shape=mxgraph.mockup.containers.anchor;fontSize=17;fontColor=#666666;align=left;" parent="1" vertex="1">
                    <mxGeometry x="1180" y="-1308" width="110" height="26" as="geometry"/>
                </mxCell>
                <mxCell id="349" value="mov-lib.io" style="strokeWidth=1;shadow=0;dashed=0;align=center;html=1;shape=mxgraph.mockup.containers.anchor;rSize=0;fontSize=17;fontColor=#666666;align=left;" parent="1" vertex="1">
                    <mxGeometry x="1250" y="-1260" width="250" height="26" as="geometry"/>
                </mxCell>
                <mxCell id="350" value="" style="shape=mxgraph.mockup.containers.marginRect;rectMarginTop=10;strokeColor=#666666;strokeWidth=1;dashed=0;rounded=1;arcSize=5;recursiveResize=0;" parent="1" vertex="1">
                    <mxGeometry x="1120" y="-1220" width="270" height="1310" as="geometry"/>
                </mxCell>
                <mxCell id="351" value="" style="shape=mxgraph.mockup.containers.marginRect;rectMarginTop=10;strokeColor=#666666;strokeWidth=1;dashed=0;rounded=1;arcSize=5;recursiveResize=0;" parent="1" vertex="1">
                    <mxGeometry x="1390" y="-1220" width="1260" height="90" as="geometry"/>
                </mxCell>
                <mxCell id="352" value="" style="group" parent="1" vertex="1" connectable="0">
                    <mxGeometry x="1170" y="-1200" width="80" height="80" as="geometry"/>
                </mxCell>
                <mxCell id="353" value="" style="verticalLabelPosition=bottom;shadow=0;dashed=0;align=center;html=1;verticalAlign=top;strokeWidth=1;shape=mxgraph.mockup.graphics.simpleIcon;strokeColor=#999999;" parent="352" vertex="1">
                    <mxGeometry width="80" height="80" as="geometry"/>
                </mxCell>
                <mxCell id="354" value="Logo" style="text;html=1;strokeColor=none;fillColor=none;align=center;verticalAlign=middle;whiteSpace=wrap;rounded=0;" parent="352" vertex="1">
                    <mxGeometry x="20" y="30" width="40" height="20" as="geometry"/>
                </mxCell>
                <mxCell id="355" value="" style="verticalLabelPosition=bottom;shadow=0;dashed=0;align=center;html=1;verticalAlign=top;strokeWidth=1;shape=mxgraph.mockup.navigation.scrollBar;strokeColor=#999999;barPos=58.026;fillColor2=#99ddff;strokeColor2=none;direction=north;" parent="1" vertex="1">
                    <mxGeometry x="2630" y="-1130" width="20" height="1220" as="geometry"/>
                </mxCell>
                <mxCell id="356" value="" style="group" parent="1" vertex="1" connectable="0">
                    <mxGeometry x="1155" y="-980" width="160" height="40" as="geometry"/>
                </mxCell>
                <mxCell id="357" value="" style="verticalLabelPosition=bottom;shadow=0;dashed=0;align=center;html=1;verticalAlign=top;strokeWidth=1;shape=mxgraph.mockup.graphics.simpleIcon;strokeColor=#999999;" parent="356" vertex="1">
                    <mxGeometry width="160" height="40" as="geometry"/>
                </mxCell>
                <mxCell id="358" value="" style="verticalLabelPosition=bottom;shadow=0;dashed=0;align=center;html=1;verticalAlign=top;strokeWidth=1;shape=mxgraph.mockup.graphics.simpleIcon;strokeColor=#999999;" parent="356" vertex="1">
                    <mxGeometry x="10" y="5" width="30" height="30" as="geometry"/>
                </mxCell>
                <mxCell id="359" value="Icon" style="text;html=1;strokeColor=none;fillColor=none;align=center;verticalAlign=middle;whiteSpace=wrap;rounded=0;" parent="356" vertex="1">
                    <mxGeometry x="5" y="10" width="40" height="20" as="geometry"/>
                </mxCell>
                <mxCell id="360" value="Menu Item 2" style="text;html=1;strokeColor=none;fillColor=none;align=center;verticalAlign=middle;whiteSpace=wrap;rounded=0;" parent="356" vertex="1">
                    <mxGeometry x="60" y="10" width="70" height="20" as="geometry"/>
                </mxCell>
                <mxCell id="361" value="" style="group" parent="1" vertex="1" connectable="0">
                    <mxGeometry x="1155" y="-920" width="160" height="40" as="geometry"/>
                </mxCell>
                <mxCell id="362" value="" style="verticalLabelPosition=bottom;shadow=0;dashed=0;align=center;html=1;verticalAlign=top;strokeWidth=1;shape=mxgraph.mockup.graphics.simpleIcon;strokeColor=#999999;" parent="361" vertex="1">
                    <mxGeometry width="160" height="40" as="geometry"/>
                </mxCell>
                <mxCell id="363" value="" style="verticalLabelPosition=bottom;shadow=0;dashed=0;align=center;html=1;verticalAlign=top;strokeWidth=1;shape=mxgraph.mockup.graphics.simpleIcon;strokeColor=#999999;" parent="361" vertex="1">
                    <mxGeometry x="10" y="5" width="30" height="30" as="geometry"/>
                </mxCell>
                <mxCell id="364" value="Icon" style="text;html=1;strokeColor=none;fillColor=none;align=center;verticalAlign=middle;whiteSpace=wrap;rounded=0;" parent="361" vertex="1">
                    <mxGeometry x="5" y="10" width="40" height="20" as="geometry"/>
                </mxCell>
                <mxCell id="365" value="Menu Item 3" style="text;html=1;strokeColor=none;fillColor=none;align=center;verticalAlign=middle;whiteSpace=wrap;rounded=0;" parent="361" vertex="1">
                    <mxGeometry x="60" y="10" width="70" height="20" as="geometry"/>
                </mxCell>
                <mxCell id="366" value="" style="group" parent="1" vertex="1" connectable="0">
                    <mxGeometry x="1155" y="-860" width="160" height="40" as="geometry"/>
                </mxCell>
                <mxCell id="367" value="" style="verticalLabelPosition=bottom;shadow=0;dashed=0;align=center;html=1;verticalAlign=top;strokeWidth=1;shape=mxgraph.mockup.graphics.simpleIcon;strokeColor=#999999;" parent="366" vertex="1">
                    <mxGeometry width="160" height="40" as="geometry"/>
                </mxCell>
                <mxCell id="368" value="" style="verticalLabelPosition=bottom;shadow=0;dashed=0;align=center;html=1;verticalAlign=top;strokeWidth=1;shape=mxgraph.mockup.graphics.simpleIcon;strokeColor=#999999;" parent="366" vertex="1">
                    <mxGeometry x="10" y="5" width="30" height="30" as="geometry"/>
                </mxCell>
                <mxCell id="369" value="Icon" style="text;html=1;strokeColor=none;fillColor=none;align=center;verticalAlign=middle;whiteSpace=wrap;rounded=0;" parent="366" vertex="1">
                    <mxGeometry x="5" y="10" width="40" height="20" as="geometry"/>
                </mxCell>
                <mxCell id="370" value="Menu Item 4" style="text;html=1;strokeColor=none;fillColor=none;align=center;verticalAlign=middle;whiteSpace=wrap;rounded=0;" parent="366" vertex="1">
                    <mxGeometry x="60" y="10" width="70" height="20" as="geometry"/>
                </mxCell>
                <mxCell id="371" value="" style="group" parent="1" vertex="1" connectable="0">
                    <mxGeometry x="1155" y="-800" width="160" height="40" as="geometry"/>
                </mxCell>
                <mxCell id="372" value="" style="verticalLabelPosition=bottom;shadow=0;dashed=0;align=center;html=1;verticalAlign=top;strokeWidth=1;shape=mxgraph.mockup.graphics.simpleIcon;strokeColor=#999999;" parent="371" vertex="1">
                    <mxGeometry width="160" height="40" as="geometry"/>
                </mxCell>
                <mxCell id="373" value="" style="verticalLabelPosition=bottom;shadow=0;dashed=0;align=center;html=1;verticalAlign=top;strokeWidth=1;shape=mxgraph.mockup.graphics.simpleIcon;strokeColor=#999999;" parent="371" vertex="1">
                    <mxGeometry x="10" y="5" width="30" height="30" as="geometry"/>
                </mxCell>
                <mxCell id="374" value="Icon" style="text;html=1;strokeColor=none;fillColor=none;align=center;verticalAlign=middle;whiteSpace=wrap;rounded=0;" parent="371" vertex="1">
                    <mxGeometry x="5" y="10" width="40" height="20" as="geometry"/>
                </mxCell>
                <mxCell id="375" value="Menu Item 5" style="text;html=1;strokeColor=none;fillColor=none;align=center;verticalAlign=middle;whiteSpace=wrap;rounded=0;" parent="371" vertex="1">
                    <mxGeometry x="60" y="10" width="70" height="20" as="geometry"/>
                </mxCell>
                <mxCell id="376" value="" style="group" parent="1" vertex="1" connectable="0">
                    <mxGeometry x="1155" y="-1040" width="160" height="40" as="geometry"/>
                </mxCell>
                <mxCell id="377" value="" style="verticalLabelPosition=bottom;shadow=0;dashed=0;align=center;html=1;verticalAlign=top;strokeWidth=1;shape=mxgraph.mockup.graphics.simpleIcon;strokeColor=#999999;" parent="376" vertex="1">
                    <mxGeometry width="160" height="40" as="geometry"/>
                </mxCell>
                <mxCell id="378" value="" style="verticalLabelPosition=bottom;shadow=0;dashed=0;align=center;html=1;verticalAlign=top;strokeWidth=1;shape=mxgraph.mockup.graphics.simpleIcon;strokeColor=#999999;" parent="376" vertex="1">
                    <mxGeometry x="10" y="5" width="30" height="30" as="geometry"/>
                </mxCell>
                <mxCell id="379" value="Icon" style="text;html=1;strokeColor=none;fillColor=none;align=center;verticalAlign=middle;whiteSpace=wrap;rounded=0;" parent="376" vertex="1">
                    <mxGeometry x="5" y="10" width="40" height="20" as="geometry"/>
                </mxCell>
                <mxCell id="380" value="Menu Item 1" style="text;html=1;strokeColor=none;fillColor=none;align=center;verticalAlign=middle;whiteSpace=wrap;rounded=0;" parent="376" vertex="1">
                    <mxGeometry x="60" y="10" width="70" height="20" as="geometry"/>
                </mxCell>
                <mxCell id="381" value="" style="verticalLabelPosition=bottom;shadow=0;dashed=0;align=center;html=1;verticalAlign=top;strokeWidth=1;shape=mxgraph.mockup.graphics.simpleIcon;strokeColor=#999999;" parent="1" vertex="1">
                    <mxGeometry x="1155" y="-1080" width="100" height="20" as="geometry"/>
                </mxCell>
                <mxCell id="382" value="Menu Header 1" style="text;html=1;strokeColor=none;fillColor=none;align=center;verticalAlign=middle;whiteSpace=wrap;rounded=0;" parent="1" vertex="1">
                    <mxGeometry x="1150" y="-1080" width="110" height="20" as="geometry"/>
                </mxCell>
                <mxCell id="383" value="" style="group" parent="1" vertex="1" connectable="0">
                    <mxGeometry x="1155" y="-630" width="160" height="40" as="geometry"/>
                </mxCell>
                <mxCell id="384" value="" style="verticalLabelPosition=bottom;shadow=0;dashed=0;align=center;html=1;verticalAlign=top;strokeWidth=1;shape=mxgraph.mockup.graphics.simpleIcon;strokeColor=#999999;" parent="383" vertex="1">
                    <mxGeometry width="160" height="40" as="geometry"/>
                </mxCell>
                <mxCell id="385" value="" style="verticalLabelPosition=bottom;shadow=0;dashed=0;align=center;html=1;verticalAlign=top;strokeWidth=1;shape=mxgraph.mockup.graphics.simpleIcon;strokeColor=#999999;" parent="383" vertex="1">
                    <mxGeometry x="10" y="5" width="30" height="30" as="geometry"/>
                </mxCell>
                <mxCell id="386" value="Icon" style="text;html=1;strokeColor=none;fillColor=none;align=center;verticalAlign=middle;whiteSpace=wrap;rounded=0;" parent="383" vertex="1">
                    <mxGeometry x="5" y="10" width="40" height="20" as="geometry"/>
                </mxCell>
                <mxCell id="387" value="Menu Item 2" style="text;html=1;strokeColor=none;fillColor=none;align=center;verticalAlign=middle;whiteSpace=wrap;rounded=0;" parent="383" vertex="1">
                    <mxGeometry x="60" y="10" width="70" height="20" as="geometry"/>
                </mxCell>
                <mxCell id="388" value="" style="group" parent="1" vertex="1" connectable="0">
                    <mxGeometry x="1155" y="-570" width="160" height="40" as="geometry"/>
                </mxCell>
                <mxCell id="389" value="" style="verticalLabelPosition=bottom;shadow=0;dashed=0;align=center;html=1;verticalAlign=top;strokeWidth=1;shape=mxgraph.mockup.graphics.simpleIcon;strokeColor=#999999;" parent="388" vertex="1">
                    <mxGeometry width="160" height="40" as="geometry"/>
                </mxCell>
                <mxCell id="390" value="" style="verticalLabelPosition=bottom;shadow=0;dashed=0;align=center;html=1;verticalAlign=top;strokeWidth=1;shape=mxgraph.mockup.graphics.simpleIcon;strokeColor=#999999;" parent="388" vertex="1">
                    <mxGeometry x="10" y="5" width="30" height="30" as="geometry"/>
                </mxCell>
                <mxCell id="391" value="Icon" style="text;html=1;strokeColor=none;fillColor=none;align=center;verticalAlign=middle;whiteSpace=wrap;rounded=0;" parent="388" vertex="1">
                    <mxGeometry x="5" y="10" width="40" height="20" as="geometry"/>
                </mxCell>
                <mxCell id="392" value="Menu Item 3" style="text;html=1;strokeColor=none;fillColor=none;align=center;verticalAlign=middle;whiteSpace=wrap;rounded=0;" parent="388" vertex="1">
                    <mxGeometry x="60" y="10" width="70" height="20" as="geometry"/>
                </mxCell>
                <mxCell id="393" value="" style="group" parent="1" vertex="1" connectable="0">
                    <mxGeometry x="1155" y="-510" width="160" height="40" as="geometry"/>
                </mxCell>
                <mxCell id="394" value="" style="verticalLabelPosition=bottom;shadow=0;dashed=0;align=center;html=1;verticalAlign=top;strokeWidth=1;shape=mxgraph.mockup.graphics.simpleIcon;strokeColor=#999999;" parent="393" vertex="1">
                    <mxGeometry width="160" height="40" as="geometry"/>
                </mxCell>
                <mxCell id="395" value="" style="verticalLabelPosition=bottom;shadow=0;dashed=0;align=center;html=1;verticalAlign=top;strokeWidth=1;shape=mxgraph.mockup.graphics.simpleIcon;strokeColor=#999999;" parent="393" vertex="1">
                    <mxGeometry x="10" y="5" width="30" height="30" as="geometry"/>
                </mxCell>
                <mxCell id="396" value="Icon" style="text;html=1;strokeColor=none;fillColor=none;align=center;verticalAlign=middle;whiteSpace=wrap;rounded=0;" parent="393" vertex="1">
                    <mxGeometry x="5" y="10" width="40" height="20" as="geometry"/>
                </mxCell>
                <mxCell id="397" value="Menu Item 4" style="text;html=1;strokeColor=none;fillColor=none;align=center;verticalAlign=middle;whiteSpace=wrap;rounded=0;" parent="393" vertex="1">
                    <mxGeometry x="60" y="10" width="70" height="20" as="geometry"/>
                </mxCell>
                <mxCell id="398" value="" style="group" parent="1" vertex="1" connectable="0">
                    <mxGeometry x="1155" y="-450" width="160" height="40" as="geometry"/>
                </mxCell>
                <mxCell id="399" value="" style="verticalLabelPosition=bottom;shadow=0;dashed=0;align=center;html=1;verticalAlign=top;strokeWidth=1;shape=mxgraph.mockup.graphics.simpleIcon;strokeColor=#999999;" parent="398" vertex="1">
                    <mxGeometry width="160" height="40" as="geometry"/>
                </mxCell>
                <mxCell id="400" value="" style="verticalLabelPosition=bottom;shadow=0;dashed=0;align=center;html=1;verticalAlign=top;strokeWidth=1;shape=mxgraph.mockup.graphics.simpleIcon;strokeColor=#999999;" parent="398" vertex="1">
                    <mxGeometry x="10" y="5" width="30" height="30" as="geometry"/>
                </mxCell>
                <mxCell id="401" value="Icon" style="text;html=1;strokeColor=none;fillColor=none;align=center;verticalAlign=middle;whiteSpace=wrap;rounded=0;" parent="398" vertex="1">
                    <mxGeometry x="5" y="10" width="40" height="20" as="geometry"/>
                </mxCell>
                <mxCell id="402" value="Menu Item 5" style="text;html=1;strokeColor=none;fillColor=none;align=center;verticalAlign=middle;whiteSpace=wrap;rounded=0;" parent="398" vertex="1">
                    <mxGeometry x="60" y="10" width="70" height="20" as="geometry"/>
                </mxCell>
                <mxCell id="403" value="" style="group" parent="1" vertex="1" connectable="0">
                    <mxGeometry x="1155" y="-690" width="160" height="40" as="geometry"/>
                </mxCell>
                <mxCell id="404" value="" style="verticalLabelPosition=bottom;shadow=0;dashed=0;align=center;html=1;verticalAlign=top;strokeWidth=1;shape=mxgraph.mockup.graphics.simpleIcon;strokeColor=#999999;" parent="403" vertex="1">
                    <mxGeometry width="160" height="40" as="geometry"/>
                </mxCell>
                <mxCell id="405" value="" style="verticalLabelPosition=bottom;shadow=0;dashed=0;align=center;html=1;verticalAlign=top;strokeWidth=1;shape=mxgraph.mockup.graphics.simpleIcon;strokeColor=#999999;" parent="403" vertex="1">
                    <mxGeometry x="10" y="5" width="30" height="30" as="geometry"/>
                </mxCell>
                <mxCell id="406" value="Icon" style="text;html=1;strokeColor=none;fillColor=none;align=center;verticalAlign=middle;whiteSpace=wrap;rounded=0;" parent="403" vertex="1">
                    <mxGeometry x="5" y="10" width="40" height="20" as="geometry"/>
                </mxCell>
                <mxCell id="407" value="Menu Item 1" style="text;html=1;strokeColor=none;fillColor=none;align=center;verticalAlign=middle;whiteSpace=wrap;rounded=0;" parent="403" vertex="1">
                    <mxGeometry x="60" y="10" width="70" height="20" as="geometry"/>
                </mxCell>
                <mxCell id="408" value="" style="verticalLabelPosition=bottom;shadow=0;dashed=0;align=center;html=1;verticalAlign=top;strokeWidth=1;shape=mxgraph.mockup.graphics.simpleIcon;strokeColor=#999999;" parent="1" vertex="1">
                    <mxGeometry x="1155" y="-730" width="100" height="20" as="geometry"/>
                </mxCell>
                <mxCell id="409" value="Menu Header 2" style="text;html=1;strokeColor=none;fillColor=none;align=center;verticalAlign=middle;whiteSpace=wrap;rounded=0;" parent="1" vertex="1">
                    <mxGeometry x="1150" y="-730" width="110" height="20" as="geometry"/>
                </mxCell>
                <mxCell id="410" value="" style="shape=mxgraph.mockup.containers.marginRect;rectMarginTop=10;strokeColor=#666666;strokeWidth=1;dashed=0;rounded=1;arcSize=5;recursiveResize=0;" parent="1" vertex="1">
                    <mxGeometry x="1390" y="-1140" width="1240" height="1230" as="geometry"/>
                </mxCell>
                <mxCell id="436" value="" style="group" parent="1" vertex="1" connectable="0">
                    <mxGeometry x="1500" y="-975" width="1010" height="310" as="geometry"/>
                </mxCell>
                <mxCell id="438" value="" style="verticalLabelPosition=bottom;shadow=0;dashed=0;align=center;html=1;verticalAlign=top;strokeWidth=1;shape=mxgraph.mockup.graphics.simpleIcon;strokeColor=#999999;" parent="436" vertex="1">
                    <mxGeometry width="1010" height="310" as="geometry"/>
                </mxCell>
                <mxCell id="439" value="Movie Poster" style="text;html=1;strokeColor=none;fillColor=none;align=center;verticalAlign=middle;whiteSpace=wrap;rounded=0;" parent="436" vertex="1">
                    <mxGeometry x="302.99999999999994" y="135.625" width="403.99999999999994" height="38.75" as="geometry"/>
                </mxCell>
                <mxCell id="519" value="" style="group" parent="1" vertex="1" connectable="0">
                    <mxGeometry x="1500" y="-1090" width="280" height="75" as="geometry"/>
                </mxCell>
                <mxCell id="465" value="" style="verticalLabelPosition=bottom;shadow=0;dashed=0;align=center;html=1;verticalAlign=top;strokeWidth=1;shape=mxgraph.mockup.graphics.simpleIcon;strokeColor=#999999;" parent="519" vertex="1">
                    <mxGeometry width="280" height="75" as="geometry"/>
                </mxCell>
                <mxCell id="499" value="Movie Name" style="rounded=0;whiteSpace=wrap;html=1;verticalAlign=middle;" parent="519" vertex="1">
                    <mxGeometry x="7" y="10" width="266" height="20" as="geometry"/>
                </mxCell>
                <mxCell id="500" value="Year" style="rounded=0;whiteSpace=wrap;html=1;verticalAlign=middle;" parent="519" vertex="1">
                    <mxGeometry x="7" y="40" width="33" height="20" as="geometry"/>
                </mxCell>
                <mxCell id="501" value="Run Time" style="rounded=0;whiteSpace=wrap;html=1;verticalAlign=middle;" parent="519" vertex="1">
                    <mxGeometry x="48" y="40" width="72" height="20" as="geometry"/>
                </mxCell>
                <mxCell id="502" value="Rating" style="rounded=0;whiteSpace=wrap;html=1;verticalAlign=middle;" parent="519" vertex="1">
                    <mxGeometry x="127.5" y="40" width="52.5" height="20" as="geometry"/>
                </mxCell>
                <mxCell id="520" value="" style="rounded=0;whiteSpace=wrap;html=1;verticalAlign=middle;" parent="1" vertex="1">
                    <mxGeometry x="1520" y="-185" width="970" height="210" as="geometry"/>
                </mxCell>
                <mxCell id="480" value="Release Date" style="rounded=0;whiteSpace=wrap;html=1;" parent="1" vertex="1">
                    <mxGeometry x="1534" y="-167.5" width="92" height="20" as="geometry"/>
                </mxCell>
                <mxCell id="487" value="" style="verticalLabelPosition=bottom;shadow=0;dashed=0;align=center;html=1;verticalAlign=top;strokeWidth=1;shape=mxgraph.mockup.graphics.simpleIcon;strokeColor=#999999;" parent="1" vertex="1">
                    <mxGeometry x="1633.5" y="-167.5" width="846.5" height="20" as="geometry"/>
                </mxCell>
                <mxCell id="477" value="Country" style="rounded=0;whiteSpace=wrap;html=1;" parent="1" vertex="1">
                    <mxGeometry x="1534" y="-132.5" width="92" height="20" as="geometry"/>
                </mxCell>
                <mxCell id="489" value="" style="verticalLabelPosition=bottom;shadow=0;dashed=0;align=center;html=1;verticalAlign=top;strokeWidth=1;shape=mxgraph.mockup.graphics.simpleIcon;strokeColor=#999999;" parent="1" vertex="1">
                    <mxGeometry x="1633.5" y="-132.5" width="846.5" height="20" as="geometry"/>
                </mxCell>
                <mxCell id="475" value="Language" style="rounded=0;whiteSpace=wrap;html=1;" parent="1" vertex="1">
                    <mxGeometry x="1534" y="-92.5" width="92" height="20" as="geometry"/>
                </mxCell>
                <mxCell id="490" value="" style="verticalLabelPosition=bottom;shadow=0;dashed=0;align=center;html=1;verticalAlign=top;strokeWidth=1;shape=mxgraph.mockup.graphics.simpleIcon;strokeColor=#999999;" parent="1" vertex="1">
                    <mxGeometry x="1633.5" y="-92.5" width="846.5" height="20" as="geometry"/>
                </mxCell>
                <mxCell id="479" value="Budget" style="rounded=0;whiteSpace=wrap;html=1;" parent="1" vertex="1">
                    <mxGeometry x="1534" y="-52.5" width="92" height="20" as="geometry"/>
                </mxCell>
                <mxCell id="481" value="Box Office" style="rounded=0;whiteSpace=wrap;html=1;" parent="1" vertex="1">
                    <mxGeometry x="1534" y="-12.5" width="92" height="20" as="geometry"/>
                </mxCell>
                <mxCell id="491" value="" style="verticalLabelPosition=bottom;shadow=0;dashed=0;align=center;html=1;verticalAlign=top;strokeWidth=1;shape=mxgraph.mockup.graphics.simpleIcon;strokeColor=#999999;" parent="1" vertex="1">
                    <mxGeometry x="1633.5" y="-52.5" width="846.5" height="20" as="geometry"/>
                </mxCell>
                <mxCell id="492" value="" style="verticalLabelPosition=bottom;shadow=0;dashed=0;align=center;html=1;verticalAlign=top;strokeWidth=1;shape=mxgraph.mockup.graphics.simpleIcon;strokeColor=#999999;" parent="1" vertex="1">
                    <mxGeometry x="1633.5" y="-12.5" width="846.5" height="20" as="geometry"/>
                </mxCell>
                <mxCell id="521" value="" style="rounded=0;whiteSpace=wrap;html=1;verticalAlign=middle;" parent="1" vertex="1">
                    <mxGeometry x="1520" y="-525" width="970" height="100" as="geometry"/>
                </mxCell>
                <mxCell id="522" value="" style="rounded=0;whiteSpace=wrap;html=1;verticalAlign=middle;" parent="1" vertex="1">
                    <mxGeometry x="1520" y="-395" width="970" height="40" as="geometry"/>
                </mxCell>
                <mxCell id="523" value="&lt;span style=&quot;color: rgba(0 , 0 , 0 , 0) ; font-family: monospace ; font-size: 0px&quot;&gt;%3CmxGraphModel%3E%3Croot%3E%3CmxCell%20id%3D%220%22%2F%3E%3CmxCell%20id%3D%221%22%20parent%3D%220%22%2F%3E%3CmxCell%20id%3D%222%22%20value%3D%22Release%20Date%22%20style%3D%22rounded%3D0%3BwhiteSpace%3Dwrap%3Bhtml%3D1%3B%22%20vertex%3D%221%22%20parent%3D%221%22%3E%3CmxGeometry%20x%3D%222914%22%20y%3D%22-192.5%22%20width%3D%2292%22%20height%3D%2220%22%20as%3D%22geometry%22%2F%3E%3C%2FmxCell%3E%3CmxCell%20id%3D%223%22%20value%3D%22%22%20style%3D%22verticalLabelPosition%3Dbottom%3Bshadow%3D0%3Bdashed%3D0%3Balign%3Dcenter%3Bhtml%3D1%3BverticalAlign%3Dtop%3BstrokeWidth%3D1%3Bshape%3Dmxgraph.mockup.graphics.simpleIcon%3BstrokeColor%3D%23999999%3B%22%20vertex%3D%221%22%20parent%3D%221%22%3E%3CmxGeometry%20x%3D%223013.5%22%20y%3D%22-192.5%22%20width%3D%22202.5%22%20height%3D%2220%22%20as%3D%22geometry%22%2F%3E%3C%2FmxCell%3E%3C%2Froot%3E%3C%2FmxGraphModel%3E&lt;/span&gt;" style="rounded=0;whiteSpace=wrap;html=1;verticalAlign=middle;" parent="1" vertex="1">
                    <mxGeometry x="1520" y="-325" width="970" height="40" as="geometry"/>
                </mxCell>
                <mxCell id="524" value="" style="rounded=0;whiteSpace=wrap;html=1;verticalAlign=middle;" parent="1" vertex="1">
                    <mxGeometry x="1520" y="-255" width="970" height="40" as="geometry"/>
                </mxCell>
                <mxCell id="525" value="" style="rounded=0;whiteSpace=wrap;html=1;verticalAlign=middle;" parent="1" vertex="1">
                    <mxGeometry x="1520" y="-595" width="970" height="50" as="geometry"/>
                </mxCell>
                <mxCell id="503" value="Genre 1" style="rounded=1;whiteSpace=wrap;html=1;verticalAlign=middle;" parent="1" vertex="1">
                    <mxGeometry x="1542" y="-585" width="90" height="30" as="geometry"/>
                </mxCell>
                <mxCell id="504" value="Genre 2" style="rounded=1;whiteSpace=wrap;html=1;verticalAlign=middle;" parent="1" vertex="1">
                    <mxGeometry x="1662" y="-585" width="90" height="30" as="geometry"/>
                </mxCell>
                <mxCell id="505" value="Genre 3" style="rounded=1;whiteSpace=wrap;html=1;verticalAlign=middle;" parent="1" vertex="1">
                    <mxGeometry x="1782" y="-585" width="90" height="30" as="geometry"/>
                </mxCell>
                <mxCell id="507" value="Genre 4&lt;br&gt;" style="rounded=1;whiteSpace=wrap;html=1;verticalAlign=middle;" parent="1" vertex="1">
                    <mxGeometry x="1902" y="-585" width="90" height="30" as="geometry"/>
                </mxCell>
                <mxCell id="526" value="Cast" style="rounded=0;whiteSpace=wrap;html=1;" parent="1" vertex="1">
                    <mxGeometry x="1534" y="-245" width="92" height="20" as="geometry"/>
                </mxCell>
                <mxCell id="527" value="" style="verticalLabelPosition=bottom;shadow=0;dashed=0;align=center;html=1;verticalAlign=top;strokeWidth=1;shape=mxgraph.mockup.graphics.simpleIcon;strokeColor=#999999;" parent="1" vertex="1">
                    <mxGeometry x="1633.5" y="-245" width="846.5" height="20" as="geometry"/>
                </mxCell>
                <mxCell id="528" value="Writers" style="rounded=0;whiteSpace=wrap;html=1;" parent="1" vertex="1">
                    <mxGeometry x="1534" y="-315" width="92" height="20" as="geometry"/>
                </mxCell>
                <mxCell id="529" value="" style="verticalLabelPosition=bottom;shadow=0;dashed=0;align=center;html=1;verticalAlign=top;strokeWidth=1;shape=mxgraph.mockup.graphics.simpleIcon;strokeColor=#999999;" parent="1" vertex="1">
                    <mxGeometry x="1633.5" y="-315" width="846.5" height="20" as="geometry"/>
                </mxCell>
                <mxCell id="530" value="Director" style="rounded=0;whiteSpace=wrap;html=1;" parent="1" vertex="1">
                    <mxGeometry x="1534" y="-385" width="92" height="20" as="geometry"/>
                </mxCell>
                <mxCell id="531" value="" style="verticalLabelPosition=bottom;shadow=0;dashed=0;align=center;html=1;verticalAlign=top;strokeWidth=1;shape=mxgraph.mockup.graphics.simpleIcon;strokeColor=#999999;" parent="1" vertex="1">
                    <mxGeometry x="1633.5" y="-385" width="846.5" height="20" as="geometry"/>
                </mxCell>
                <mxCell id="532" value="Plot Summary" style="rounded=0;whiteSpace=wrap;html=1;" parent="1" vertex="1">
                    <mxGeometry x="1534" y="-515" width="92" height="80" as="geometry"/>
                </mxCell>
                <mxCell id="533" value="" style="verticalLabelPosition=bottom;shadow=0;dashed=0;align=center;html=1;verticalAlign=top;strokeWidth=1;shape=mxgraph.mockup.graphics.simpleIcon;strokeColor=#999999;" parent="1" vertex="1">
                    <mxGeometry x="1633.5" y="-515" width="846.5" height="80" as="geometry"/>
                </mxCell>
                <mxCell id="534" value="Genre 5" style="rounded=1;whiteSpace=wrap;html=1;verticalAlign=middle;" parent="1" vertex="1">
                    <mxGeometry x="2018" y="-585" width="90" height="30" as="geometry"/>
                </mxCell>
                <mxCell id="535" value="Genre 6" style="rounded=1;whiteSpace=wrap;html=1;verticalAlign=middle;" parent="1" vertex="1">
                    <mxGeometry x="2138" y="-585" width="90" height="30" as="geometry"/>
                </mxCell>
                <mxCell id="536" value="Genre 7" style="rounded=1;whiteSpace=wrap;html=1;verticalAlign=middle;" parent="1" vertex="1">
                    <mxGeometry x="2258" y="-585" width="90" height="30" as="geometry"/>
                </mxCell>
                <mxCell id="537" value="Genre 8" style="rounded=1;whiteSpace=wrap;html=1;verticalAlign=middle;" parent="1" vertex="1">
                    <mxGeometry x="2378" y="-585" width="90" height="30" as="geometry"/>
                </mxCell>
                <mxCell id="538" value="" style="verticalLabelPosition=bottom;shadow=0;dashed=0;align=center;html=1;verticalAlign=top;strokeWidth=1;shape=mxgraph.mockup.graphics.simpleIcon;strokeColor=#999999;" parent="1" vertex="1">
                    <mxGeometry x="2410" y="-655" width="80" height="40" as="geometry"/>
                </mxCell>
                <mxCell id="539" value="" style="verticalLabelPosition=bottom;shadow=0;dashed=0;align=center;html=1;verticalAlign=top;strokeWidth=1;shape=mxgraph.mockup.graphics.simpleIcon;strokeColor=#999999;" parent="1" vertex="1">
                    <mxGeometry x="2335" y="-655" width="40" height="40" as="geometry"/>
                </mxCell>
                <mxCell id="540" value="" style="verticalLabelPosition=bottom;shadow=0;dashed=0;align=center;html=1;verticalAlign=top;strokeWidth=1;shape=mxgraph.mockup.graphics.simpleIcon;strokeColor=#999999;" parent="1" vertex="1">
                    <mxGeometry x="2258" y="-655" width="40" height="40" as="geometry"/>
                </mxCell>
                <mxCell id="549" value="Search" style="rounded=1;whiteSpace=wrap;html=1;glass=0;strokeColor=#f0f0f0;fillColor=#2a2a2a;gradientColor=none;verticalAlign=middle;" parent="1" vertex="1">
                    <mxGeometry x="1425" y="-1190" width="1000" height="40" as="geometry"/>
                </mxCell>
                <mxCell id="550" value="" style="group" parent="1" vertex="1" connectable="0">
                    <mxGeometry x="2455" y="-1190" width="160" height="40" as="geometry"/>
                </mxCell>
                <mxCell id="551" value="" style="verticalLabelPosition=bottom;shadow=0;dashed=0;align=center;html=1;verticalAlign=top;strokeWidth=1;shape=mxgraph.mockup.graphics.simpleIcon;strokeColor=#999999;" parent="550" vertex="1">
                    <mxGeometry width="160" height="40" as="geometry"/>
                </mxCell>
                <mxCell id="552" value="" style="verticalLabelPosition=bottom;shadow=0;dashed=0;align=center;html=1;verticalAlign=top;strokeWidth=1;shape=mxgraph.mockup.graphics.simpleIcon;strokeColor=#999999;" parent="550" vertex="1">
                    <mxGeometry x="10" y="5" width="30" height="30" as="geometry"/>
                </mxCell>
                <mxCell id="553" value="Icon" style="text;html=1;strokeColor=none;fillColor=none;align=center;verticalAlign=middle;whiteSpace=wrap;rounded=0;" parent="550" vertex="1">
                    <mxGeometry x="5" y="10" width="40" height="20" as="geometry"/>
                </mxCell>
                <mxCell id="554" value="Username" style="text;html=1;strokeColor=none;fillColor=none;align=center;verticalAlign=middle;whiteSpace=wrap;rounded=0;" parent="550" vertex="1">
                    <mxGeometry x="60" y="10" width="70" height="20" as="geometry"/>
                </mxCell>
                <mxCell id="561" value="Result Success View" style="shape=rect;strokeColor=none;fillColor=#008cff;strokeWidth=1;dashed=0;rounded=1;arcSize=20;fontColor=#ffffff;fontSize=17;spacing=2;spacingTop=-2;align=center;autosize=1;spacingLeft=4;resizeWidth=0;resizeHeight=0;perimeter=none;" parent="1" vertex="1">
                    <mxGeometry x="3578" y="-1410" width="180" height="30" as="geometry"/>
                </mxCell>
                <mxCell id="676" value="" style="strokeWidth=1;shadow=0;dashed=0;align=center;html=1;shape=mxgraph.mockup.containers.browserWindow;rSize=0;strokeColor=#666666;strokeColor2=#008cff;strokeColor3=#c4c4c4;mainText=,;recursiveResize=0;" parent="1" vertex="1">
                    <mxGeometry x="2880" y="-1320" width="1530" height="1410" as="geometry"/>
                </mxCell>
                <mxCell id="677" value="The Library" style="strokeWidth=1;shadow=0;dashed=0;align=center;html=1;shape=mxgraph.mockup.containers.anchor;fontSize=17;fontColor=#666666;align=left;" parent="676" vertex="1">
                    <mxGeometry x="60" y="12" width="110" height="26" as="geometry"/>
                </mxCell>
                <mxCell id="678" value="mov-lib.io" style="strokeWidth=1;shadow=0;dashed=0;align=center;html=1;shape=mxgraph.mockup.containers.anchor;rSize=0;fontSize=17;fontColor=#666666;align=left;" parent="676" vertex="1">
                    <mxGeometry x="130" y="60" width="250" height="26" as="geometry"/>
                </mxCell>
                <mxCell id="679" value="" style="shape=mxgraph.mockup.containers.marginRect;rectMarginTop=10;strokeColor=#666666;strokeWidth=1;dashed=0;rounded=1;arcSize=5;recursiveResize=0;" parent="676" vertex="1">
                    <mxGeometry y="100" width="270" height="1310" as="geometry"/>
                </mxCell>
                <mxCell id="680" value="" style="shape=mxgraph.mockup.containers.marginRect;rectMarginTop=10;strokeColor=#666666;strokeWidth=1;dashed=0;rounded=1;arcSize=5;recursiveResize=0;" parent="676" vertex="1">
                    <mxGeometry x="270" y="100" width="1260" height="90" as="geometry"/>
                </mxCell>
                <mxCell id="681" value="" style="group" parent="676" vertex="1" connectable="0">
                    <mxGeometry x="50" y="120" width="80" height="80" as="geometry"/>
                </mxCell>
                <mxCell id="682" value="" style="verticalLabelPosition=bottom;shadow=0;dashed=0;align=center;html=1;verticalAlign=top;strokeWidth=1;shape=mxgraph.mockup.graphics.simpleIcon;strokeColor=#999999;" parent="681" vertex="1">
                    <mxGeometry width="80" height="80" as="geometry"/>
                </mxCell>
                <mxCell id="683" value="Logo" style="text;html=1;strokeColor=none;fillColor=none;align=center;verticalAlign=middle;whiteSpace=wrap;rounded=0;" parent="681" vertex="1">
                    <mxGeometry x="20" y="30" width="40" height="20" as="geometry"/>
                </mxCell>
                <mxCell id="684" value="" style="verticalLabelPosition=bottom;shadow=0;dashed=0;align=center;html=1;verticalAlign=top;strokeWidth=1;shape=mxgraph.mockup.navigation.scrollBar;strokeColor=#999999;barPos=58.026;fillColor2=#99ddff;strokeColor2=none;direction=north;" parent="676" vertex="1">
                    <mxGeometry x="1510" y="190" width="20" height="1220" as="geometry"/>
                </mxCell>
                <mxCell id="685" value="" style="group" parent="676" vertex="1" connectable="0">
                    <mxGeometry x="35" y="340" width="160" height="40" as="geometry"/>
                </mxCell>
                <mxCell id="686" value="" style="verticalLabelPosition=bottom;shadow=0;dashed=0;align=center;html=1;verticalAlign=top;strokeWidth=1;shape=mxgraph.mockup.graphics.simpleIcon;strokeColor=#999999;" parent="685" vertex="1">
                    <mxGeometry width="160" height="40" as="geometry"/>
                </mxCell>
                <mxCell id="687" value="" style="verticalLabelPosition=bottom;shadow=0;dashed=0;align=center;html=1;verticalAlign=top;strokeWidth=1;shape=mxgraph.mockup.graphics.simpleIcon;strokeColor=#999999;" parent="685" vertex="1">
                    <mxGeometry x="10" y="5" width="30" height="30" as="geometry"/>
                </mxCell>
                <mxCell id="688" value="Icon" style="text;html=1;strokeColor=none;fillColor=none;align=center;verticalAlign=middle;whiteSpace=wrap;rounded=0;" parent="685" vertex="1">
                    <mxGeometry x="5" y="10" width="40" height="20" as="geometry"/>
                </mxCell>
                <mxCell id="689" value="Menu Item 2" style="text;html=1;strokeColor=none;fillColor=none;align=center;verticalAlign=middle;whiteSpace=wrap;rounded=0;" parent="685" vertex="1">
                    <mxGeometry x="60" y="10" width="70" height="20" as="geometry"/>
                </mxCell>
                <mxCell id="690" value="" style="group" parent="676" vertex="1" connectable="0">
                    <mxGeometry x="35" y="400" width="160" height="40" as="geometry"/>
                </mxCell>
                <mxCell id="691" value="" style="verticalLabelPosition=bottom;shadow=0;dashed=0;align=center;html=1;verticalAlign=top;strokeWidth=1;shape=mxgraph.mockup.graphics.simpleIcon;strokeColor=#999999;" parent="690" vertex="1">
                    <mxGeometry width="160" height="40" as="geometry"/>
                </mxCell>
                <mxCell id="692" value="" style="verticalLabelPosition=bottom;shadow=0;dashed=0;align=center;html=1;verticalAlign=top;strokeWidth=1;shape=mxgraph.mockup.graphics.simpleIcon;strokeColor=#999999;" parent="690" vertex="1">
                    <mxGeometry x="10" y="5" width="30" height="30" as="geometry"/>
                </mxCell>
                <mxCell id="693" value="Icon" style="text;html=1;strokeColor=none;fillColor=none;align=center;verticalAlign=middle;whiteSpace=wrap;rounded=0;" parent="690" vertex="1">
                    <mxGeometry x="5" y="10" width="40" height="20" as="geometry"/>
                </mxCell>
                <mxCell id="694" value="Menu Item 3" style="text;html=1;strokeColor=none;fillColor=none;align=center;verticalAlign=middle;whiteSpace=wrap;rounded=0;" parent="690" vertex="1">
                    <mxGeometry x="60" y="10" width="70" height="20" as="geometry"/>
                </mxCell>
                <mxCell id="695" value="" style="group" parent="676" vertex="1" connectable="0">
                    <mxGeometry x="35" y="460" width="160" height="40" as="geometry"/>
                </mxCell>
                <mxCell id="696" value="" style="verticalLabelPosition=bottom;shadow=0;dashed=0;align=center;html=1;verticalAlign=top;strokeWidth=1;shape=mxgraph.mockup.graphics.simpleIcon;strokeColor=#999999;" parent="695" vertex="1">
                    <mxGeometry width="160" height="40" as="geometry"/>
                </mxCell>
                <mxCell id="697" value="" style="verticalLabelPosition=bottom;shadow=0;dashed=0;align=center;html=1;verticalAlign=top;strokeWidth=1;shape=mxgraph.mockup.graphics.simpleIcon;strokeColor=#999999;" parent="695" vertex="1">
                    <mxGeometry x="10" y="5" width="30" height="30" as="geometry"/>
                </mxCell>
                <mxCell id="698" value="Icon" style="text;html=1;strokeColor=none;fillColor=none;align=center;verticalAlign=middle;whiteSpace=wrap;rounded=0;" parent="695" vertex="1">
                    <mxGeometry x="5" y="10" width="40" height="20" as="geometry"/>
                </mxCell>
                <mxCell id="699" value="Menu Item 4" style="text;html=1;strokeColor=none;fillColor=none;align=center;verticalAlign=middle;whiteSpace=wrap;rounded=0;" parent="695" vertex="1">
                    <mxGeometry x="60" y="10" width="70" height="20" as="geometry"/>
                </mxCell>
                <mxCell id="700" value="" style="group;rounded=0;" parent="676" vertex="1" connectable="0">
                    <mxGeometry x="35" y="520" width="160" height="40" as="geometry"/>
                </mxCell>
                <mxCell id="701" value="" style="verticalLabelPosition=bottom;shadow=0;dashed=0;align=center;html=1;verticalAlign=top;strokeWidth=1;shape=mxgraph.mockup.graphics.simpleIcon;strokeColor=#999999;" parent="700" vertex="1">
                    <mxGeometry width="160" height="40" as="geometry"/>
                </mxCell>
                <mxCell id="702" value="" style="verticalLabelPosition=bottom;shadow=0;dashed=0;align=center;html=1;verticalAlign=top;strokeWidth=1;shape=mxgraph.mockup.graphics.simpleIcon;strokeColor=#999999;" parent="700" vertex="1">
                    <mxGeometry x="10" y="5" width="30" height="30" as="geometry"/>
                </mxCell>
                <mxCell id="703" value="Icon" style="text;html=1;strokeColor=none;fillColor=none;align=center;verticalAlign=middle;whiteSpace=wrap;rounded=0;" parent="700" vertex="1">
                    <mxGeometry x="5" y="10" width="40" height="20" as="geometry"/>
                </mxCell>
                <mxCell id="704" value="Menu Item 5" style="text;html=1;strokeColor=none;fillColor=none;align=center;verticalAlign=middle;whiteSpace=wrap;rounded=0;" parent="700" vertex="1">
                    <mxGeometry x="60" y="10" width="70" height="20" as="geometry"/>
                </mxCell>
                <mxCell id="705" value="" style="group" parent="676" vertex="1" connectable="0">
                    <mxGeometry x="35" y="280" width="160" height="40" as="geometry"/>
                </mxCell>
                <mxCell id="706" value="" style="verticalLabelPosition=bottom;shadow=0;dashed=0;align=center;html=1;verticalAlign=top;strokeWidth=1;shape=mxgraph.mockup.graphics.simpleIcon;strokeColor=#999999;" parent="705" vertex="1">
                    <mxGeometry width="160" height="40" as="geometry"/>
                </mxCell>
                <mxCell id="707" value="" style="verticalLabelPosition=bottom;shadow=0;dashed=0;align=center;html=1;verticalAlign=top;strokeWidth=1;shape=mxgraph.mockup.graphics.simpleIcon;strokeColor=#999999;" parent="705" vertex="1">
                    <mxGeometry x="10" y="5" width="30" height="30" as="geometry"/>
                </mxCell>
                <mxCell id="708" value="Icon" style="text;html=1;strokeColor=none;fillColor=none;align=center;verticalAlign=middle;whiteSpace=wrap;rounded=0;" parent="705" vertex="1">
                    <mxGeometry x="5" y="10" width="40" height="20" as="geometry"/>
                </mxCell>
                <mxCell id="709" value="Menu Item 1" style="text;html=1;strokeColor=none;fillColor=none;align=center;verticalAlign=middle;whiteSpace=wrap;rounded=0;" parent="705" vertex="1">
                    <mxGeometry x="60" y="10" width="70" height="20" as="geometry"/>
                </mxCell>
                <mxCell id="710" value="" style="verticalLabelPosition=bottom;shadow=0;dashed=0;align=center;html=1;verticalAlign=top;strokeWidth=1;shape=mxgraph.mockup.graphics.simpleIcon;strokeColor=#999999;" parent="676" vertex="1">
                    <mxGeometry x="35" y="240" width="100" height="20" as="geometry"/>
                </mxCell>
                <mxCell id="711" value="Menu Header 1" style="text;html=1;strokeColor=none;fillColor=none;align=center;verticalAlign=middle;whiteSpace=wrap;rounded=0;" parent="676" vertex="1">
                    <mxGeometry x="30" y="240" width="110" height="20" as="geometry"/>
                </mxCell>
                <mxCell id="712" value="" style="group" parent="676" vertex="1" connectable="0">
                    <mxGeometry x="35" y="690" width="160" height="40" as="geometry"/>
                </mxCell>
                <mxCell id="713" value="" style="verticalLabelPosition=bottom;shadow=0;dashed=0;align=center;html=1;verticalAlign=top;strokeWidth=1;shape=mxgraph.mockup.graphics.simpleIcon;strokeColor=#999999;" parent="712" vertex="1">
                    <mxGeometry width="160" height="40" as="geometry"/>
                </mxCell>
                <mxCell id="714" value="" style="verticalLabelPosition=bottom;shadow=0;dashed=0;align=center;html=1;verticalAlign=top;strokeWidth=1;shape=mxgraph.mockup.graphics.simpleIcon;strokeColor=#999999;" parent="712" vertex="1">
                    <mxGeometry x="10" y="5" width="30" height="30" as="geometry"/>
                </mxCell>
                <mxCell id="715" value="Icon" style="text;html=1;strokeColor=none;fillColor=none;align=center;verticalAlign=middle;whiteSpace=wrap;rounded=0;" parent="712" vertex="1">
                    <mxGeometry x="5" y="10" width="40" height="20" as="geometry"/>
                </mxCell>
                <mxCell id="716" value="Menu Item 2" style="text;html=1;strokeColor=none;fillColor=none;align=center;verticalAlign=middle;whiteSpace=wrap;rounded=0;" parent="712" vertex="1">
                    <mxGeometry x="60" y="10" width="70" height="20" as="geometry"/>
                </mxCell>
                <mxCell id="717" value="" style="group" parent="676" vertex="1" connectable="0">
                    <mxGeometry x="35" y="750" width="160" height="40" as="geometry"/>
                </mxCell>
                <mxCell id="718" value="" style="verticalLabelPosition=bottom;shadow=0;dashed=0;align=center;html=1;verticalAlign=top;strokeWidth=1;shape=mxgraph.mockup.graphics.simpleIcon;strokeColor=#999999;" parent="717" vertex="1">
                    <mxGeometry width="160" height="40" as="geometry"/>
                </mxCell>
                <mxCell id="719" value="" style="verticalLabelPosition=bottom;shadow=0;dashed=0;align=center;html=1;verticalAlign=top;strokeWidth=1;shape=mxgraph.mockup.graphics.simpleIcon;strokeColor=#999999;" parent="717" vertex="1">
                    <mxGeometry x="10" y="5" width="30" height="30" as="geometry"/>
                </mxCell>
                <mxCell id="720" value="Icon" style="text;html=1;strokeColor=none;fillColor=none;align=center;verticalAlign=middle;whiteSpace=wrap;rounded=0;" parent="717" vertex="1">
                    <mxGeometry x="5" y="10" width="40" height="20" as="geometry"/>
                </mxCell>
                <mxCell id="721" value="Menu Item 3" style="text;html=1;strokeColor=none;fillColor=none;align=center;verticalAlign=middle;whiteSpace=wrap;rounded=0;" parent="717" vertex="1">
                    <mxGeometry x="60" y="10" width="70" height="20" as="geometry"/>
                </mxCell>
                <mxCell id="722" value="" style="group" parent="676" vertex="1" connectable="0">
                    <mxGeometry x="35" y="810" width="160" height="40" as="geometry"/>
                </mxCell>
                <mxCell id="723" value="" style="verticalLabelPosition=bottom;shadow=0;dashed=0;align=center;html=1;verticalAlign=top;strokeWidth=1;shape=mxgraph.mockup.graphics.simpleIcon;strokeColor=#999999;" parent="722" vertex="1">
                    <mxGeometry width="160" height="40" as="geometry"/>
                </mxCell>
                <mxCell id="724" value="" style="verticalLabelPosition=bottom;shadow=0;dashed=0;align=center;html=1;verticalAlign=top;strokeWidth=1;shape=mxgraph.mockup.graphics.simpleIcon;strokeColor=#999999;" parent="722" vertex="1">
                    <mxGeometry x="10" y="5" width="30" height="30" as="geometry"/>
                </mxCell>
                <mxCell id="725" value="Icon" style="text;html=1;strokeColor=none;fillColor=none;align=center;verticalAlign=middle;whiteSpace=wrap;rounded=0;" parent="722" vertex="1">
                    <mxGeometry x="5" y="10" width="40" height="20" as="geometry"/>
                </mxCell>
                <mxCell id="726" value="Menu Item 4" style="text;html=1;strokeColor=none;fillColor=none;align=center;verticalAlign=middle;whiteSpace=wrap;rounded=0;" parent="722" vertex="1">
                    <mxGeometry x="60" y="10" width="70" height="20" as="geometry"/>
                </mxCell>
                <mxCell id="727" value="" style="group" parent="676" vertex="1" connectable="0">
                    <mxGeometry x="35" y="870" width="160" height="40" as="geometry"/>
                </mxCell>
                <mxCell id="728" value="" style="verticalLabelPosition=bottom;shadow=0;dashed=0;align=center;html=1;verticalAlign=top;strokeWidth=1;shape=mxgraph.mockup.graphics.simpleIcon;strokeColor=#999999;" parent="727" vertex="1">
                    <mxGeometry width="160" height="40" as="geometry"/>
                </mxCell>
                <mxCell id="729" value="" style="verticalLabelPosition=bottom;shadow=0;dashed=0;align=center;html=1;verticalAlign=top;strokeWidth=1;shape=mxgraph.mockup.graphics.simpleIcon;strokeColor=#999999;" parent="727" vertex="1">
                    <mxGeometry x="10" y="5" width="30" height="30" as="geometry"/>
                </mxCell>
                <mxCell id="730" value="Icon" style="text;html=1;strokeColor=none;fillColor=none;align=center;verticalAlign=middle;whiteSpace=wrap;rounded=0;" parent="727" vertex="1">
                    <mxGeometry x="5" y="10" width="40" height="20" as="geometry"/>
                </mxCell>
                <mxCell id="731" value="Menu Item 5" style="text;html=1;strokeColor=none;fillColor=none;align=center;verticalAlign=middle;whiteSpace=wrap;rounded=0;" parent="727" vertex="1">
                    <mxGeometry x="60" y="10" width="70" height="20" as="geometry"/>
                </mxCell>
                <mxCell id="732" value="" style="group" parent="676" vertex="1" connectable="0">
                    <mxGeometry x="35" y="630" width="160" height="40" as="geometry"/>
                </mxCell>
                <mxCell id="733" value="" style="verticalLabelPosition=bottom;shadow=0;dashed=0;align=center;html=1;verticalAlign=top;strokeWidth=1;shape=mxgraph.mockup.graphics.simpleIcon;strokeColor=#999999;" parent="732" vertex="1">
                    <mxGeometry width="160" height="40" as="geometry"/>
                </mxCell>
                <mxCell id="734" value="" style="verticalLabelPosition=bottom;shadow=0;dashed=0;align=center;html=1;verticalAlign=top;strokeWidth=1;shape=mxgraph.mockup.graphics.simpleIcon;strokeColor=#999999;" parent="732" vertex="1">
                    <mxGeometry x="10" y="5" width="30" height="30" as="geometry"/>
                </mxCell>
                <mxCell id="735" value="Icon" style="text;html=1;strokeColor=none;fillColor=none;align=center;verticalAlign=middle;whiteSpace=wrap;rounded=0;" parent="732" vertex="1">
                    <mxGeometry x="5" y="10" width="40" height="20" as="geometry"/>
                </mxCell>
                <mxCell id="736" value="Menu Item 1" style="text;html=1;strokeColor=none;fillColor=none;align=center;verticalAlign=middle;whiteSpace=wrap;rounded=0;" parent="732" vertex="1">
                    <mxGeometry x="60" y="10" width="70" height="20" as="geometry"/>
                </mxCell>
                <mxCell id="737" value="" style="verticalLabelPosition=bottom;shadow=0;dashed=0;align=center;html=1;verticalAlign=top;strokeWidth=1;shape=mxgraph.mockup.graphics.simpleIcon;strokeColor=#999999;" parent="676" vertex="1">
                    <mxGeometry x="35" y="590" width="100" height="20" as="geometry"/>
                </mxCell>
                <mxCell id="738" value="Menu Header 2" style="text;html=1;strokeColor=none;fillColor=none;align=center;verticalAlign=middle;whiteSpace=wrap;rounded=0;" parent="676" vertex="1">
                    <mxGeometry x="30" y="590" width="110" height="20" as="geometry"/>
                </mxCell>
                <mxCell id="739" value="" style="shape=mxgraph.mockup.containers.marginRect;rectMarginTop=10;strokeColor=#666666;strokeWidth=1;dashed=0;rounded=1;arcSize=5;recursiveResize=0;" parent="676" vertex="1">
                    <mxGeometry x="270" y="180" width="1240" height="1230" as="geometry"/>
                </mxCell>
                <mxCell id="740" value="" style="group" parent="676" vertex="1" connectable="0">
                    <mxGeometry x="370" y="340" width="1040" height="850" as="geometry"/>
                </mxCell>
                <mxCell id="741" value="" style="group" parent="740" vertex="1" connectable="0">
                    <mxGeometry x="540.8000000000001" width="228.8" height="392.30769230769226" as="geometry"/>
                </mxCell>
                <mxCell id="742" value="" style="group" parent="741" vertex="1" connectable="0">
                    <mxGeometry width="228.8" height="392.30769230769226" as="geometry"/>
                </mxCell>
                <mxCell id="743" value="Movie Name" style="verticalLabelPosition=bottom;shadow=0;dashed=0;align=center;html=1;verticalAlign=top;strokeWidth=1;shape=mxgraph.mockup.graphics.simpleIcon;strokeColor=#999999;" parent="742" vertex="1">
                    <mxGeometry width="228.8" height="392.30769230769226" as="geometry"/>
                </mxCell>
                <mxCell id="744" value="Movie Poster" style="text;html=1;strokeColor=none;fillColor=none;align=center;verticalAlign=middle;whiteSpace=wrap;rounded=0;" parent="742" vertex="1">
                    <mxGeometry x="68.64" y="171.63461538461536" width="91.52000000000001" height="49.03846153846153" as="geometry"/>
                </mxCell>
                <mxCell id="745" value="" style="verticalLabelPosition=bottom;shadow=0;dashed=0;align=center;html=1;verticalAlign=top;strokeWidth=1;shape=mxgraph.mockup.graphics.simpleIcon;strokeColor=#999999;" parent="741" vertex="1">
                    <mxGeometry x="160.16" width="45.760000000000005" height="49.03846153846153" as="geometry"/>
                </mxCell>
                <mxCell id="746" value="" style="verticalLabelPosition=bottom;shadow=0;dashed=0;align=center;html=1;verticalAlign=top;strokeWidth=1;shape=mxgraph.mockup.graphics.simpleIcon;strokeColor=#999999;" parent="741" vertex="1">
                    <mxGeometry x="22.880000000000003" width="45.760000000000005" height="49.03846153846153" as="geometry"/>
                </mxCell>
                <mxCell id="747" value="" style="group" parent="740" vertex="1" connectable="0">
                    <mxGeometry x="811.2" width="228.8" height="392.30769230769226" as="geometry"/>
                </mxCell>
                <mxCell id="748" value="" style="group" parent="747" vertex="1" connectable="0">
                    <mxGeometry width="228.8" height="392.30769230769226" as="geometry"/>
                </mxCell>
                <mxCell id="749" value="Movie Name" style="verticalLabelPosition=bottom;shadow=0;dashed=0;align=center;html=1;verticalAlign=top;strokeWidth=1;shape=mxgraph.mockup.graphics.simpleIcon;strokeColor=#999999;" parent="748" vertex="1">
                    <mxGeometry width="228.8" height="392.30769230769226" as="geometry"/>
                </mxCell>
                <mxCell id="750" value="Movie Poster" style="text;html=1;strokeColor=none;fillColor=none;align=center;verticalAlign=middle;whiteSpace=wrap;rounded=0;" parent="748" vertex="1">
                    <mxGeometry x="68.64" y="171.63461538461536" width="91.52000000000001" height="49.03846153846153" as="geometry"/>
                </mxCell>
                <mxCell id="751" value="" style="verticalLabelPosition=bottom;shadow=0;dashed=0;align=center;html=1;verticalAlign=top;strokeWidth=1;shape=mxgraph.mockup.graphics.simpleIcon;strokeColor=#999999;" parent="747" vertex="1">
                    <mxGeometry x="160.16" width="45.760000000000005" height="49.03846153846153" as="geometry"/>
                </mxCell>
                <mxCell id="752" value="" style="verticalLabelPosition=bottom;shadow=0;dashed=0;align=center;html=1;verticalAlign=top;strokeWidth=1;shape=mxgraph.mockup.graphics.simpleIcon;strokeColor=#999999;" parent="747" vertex="1">
                    <mxGeometry x="22.880000000000003" width="45.760000000000005" height="49.03846153846153" as="geometry"/>
                </mxCell>
                <mxCell id="753" value="" style="group" parent="740" vertex="1" connectable="0">
                    <mxGeometry x="270.40000000000003" width="228.8" height="392.30769230769226" as="geometry"/>
                </mxCell>
                <mxCell id="754" value="" style="group" parent="753" vertex="1" connectable="0">
                    <mxGeometry width="228.8" height="392.30769230769226" as="geometry"/>
                </mxCell>
                <mxCell id="755" value="Movie Name" style="verticalLabelPosition=bottom;shadow=0;dashed=0;align=center;html=1;verticalAlign=top;strokeWidth=1;shape=mxgraph.mockup.graphics.simpleIcon;strokeColor=#999999;" parent="754" vertex="1">
                    <mxGeometry width="228.8" height="392.30769230769226" as="geometry"/>
                </mxCell>
                <mxCell id="756" value="Movie Poster" style="text;html=1;strokeColor=none;fillColor=none;align=center;verticalAlign=middle;whiteSpace=wrap;rounded=0;" parent="754" vertex="1">
                    <mxGeometry x="68.64" y="171.63461538461536" width="91.52000000000001" height="49.03846153846153" as="geometry"/>
                </mxCell>
                <mxCell id="757" value="" style="verticalLabelPosition=bottom;shadow=0;dashed=0;align=center;html=1;verticalAlign=top;strokeWidth=1;shape=mxgraph.mockup.graphics.simpleIcon;strokeColor=#999999;" parent="753" vertex="1">
                    <mxGeometry x="160.16" width="45.760000000000005" height="49.03846153846153" as="geometry"/>
                </mxCell>
                <mxCell id="758" value="" style="verticalLabelPosition=bottom;shadow=0;dashed=0;align=center;html=1;verticalAlign=top;strokeWidth=1;shape=mxgraph.mockup.graphics.simpleIcon;strokeColor=#999999;" parent="753" vertex="1">
                    <mxGeometry x="22.880000000000003" width="45.760000000000005" height="49.03846153846153" as="geometry"/>
                </mxCell>
                <mxCell id="759" value="" style="group" parent="740" vertex="1" connectable="0">
                    <mxGeometry x="540.8000000000001" y="457.6923076923077" width="228.8" height="392.30769230769226" as="geometry"/>
                </mxCell>
                <mxCell id="760" value="" style="group" parent="759" vertex="1" connectable="0">
                    <mxGeometry width="228.8" height="392.30769230769226" as="geometry"/>
                </mxCell>
                <mxCell id="761" value="Movie Name" style="verticalLabelPosition=bottom;shadow=0;dashed=0;align=center;html=1;verticalAlign=top;strokeWidth=1;shape=mxgraph.mockup.graphics.simpleIcon;strokeColor=#999999;" parent="760" vertex="1">
                    <mxGeometry width="228.8" height="392.30769230769226" as="geometry"/>
                </mxCell>
                <mxCell id="762" value="Movie Poster" style="text;html=1;strokeColor=none;fillColor=none;align=center;verticalAlign=middle;whiteSpace=wrap;rounded=0;" parent="760" vertex="1">
                    <mxGeometry x="68.64" y="171.63461538461536" width="91.52000000000001" height="49.03846153846153" as="geometry"/>
                </mxCell>
                <mxCell id="763" value="" style="verticalLabelPosition=bottom;shadow=0;dashed=0;align=center;html=1;verticalAlign=top;strokeWidth=1;shape=mxgraph.mockup.graphics.simpleIcon;strokeColor=#999999;" parent="759" vertex="1">
                    <mxGeometry x="160.16" width="45.760000000000005" height="49.03846153846153" as="geometry"/>
                </mxCell>
                <mxCell id="764" value="" style="verticalLabelPosition=bottom;shadow=0;dashed=0;align=center;html=1;verticalAlign=top;strokeWidth=1;shape=mxgraph.mockup.graphics.simpleIcon;strokeColor=#999999;" parent="759" vertex="1">
                    <mxGeometry x="22.880000000000003" width="45.760000000000005" height="49.03846153846153" as="geometry"/>
                </mxCell>
                <mxCell id="765" value="" style="group" parent="740" vertex="1" connectable="0">
                    <mxGeometry x="811.2" y="457.6923076923077" width="228.8" height="392.30769230769226" as="geometry"/>
                </mxCell>
                <mxCell id="766" value="" style="group" parent="765" vertex="1" connectable="0">
                    <mxGeometry width="228.8" height="392.30769230769226" as="geometry"/>
                </mxCell>
                <mxCell id="767" value="Movie Name" style="verticalLabelPosition=bottom;shadow=0;dashed=0;align=center;html=1;verticalAlign=top;strokeWidth=1;shape=mxgraph.mockup.graphics.simpleIcon;strokeColor=#999999;" parent="766" vertex="1">
                    <mxGeometry width="228.8" height="392.30769230769226" as="geometry"/>
                </mxCell>
                <mxCell id="768" value="Movie Poster" style="text;html=1;strokeColor=none;fillColor=none;align=center;verticalAlign=middle;whiteSpace=wrap;rounded=0;" parent="766" vertex="1">
                    <mxGeometry x="68.64" y="171.63461538461536" width="91.52000000000001" height="49.03846153846153" as="geometry"/>
                </mxCell>
                <mxCell id="769" value="" style="verticalLabelPosition=bottom;shadow=0;dashed=0;align=center;html=1;verticalAlign=top;strokeWidth=1;shape=mxgraph.mockup.graphics.simpleIcon;strokeColor=#999999;" parent="765" vertex="1">
                    <mxGeometry x="160.16" width="45.760000000000005" height="49.03846153846153" as="geometry"/>
                </mxCell>
                <mxCell id="770" value="" style="verticalLabelPosition=bottom;shadow=0;dashed=0;align=center;html=1;verticalAlign=top;strokeWidth=1;shape=mxgraph.mockup.graphics.simpleIcon;strokeColor=#999999;" parent="765" vertex="1">
                    <mxGeometry x="22.880000000000003" width="45.760000000000005" height="49.03846153846153" as="geometry"/>
                </mxCell>
                <mxCell id="771" value="" style="group" parent="740" vertex="1" connectable="0">
                    <mxGeometry x="270.40000000000003" y="457.6923076923077" width="228.8" height="392.30769230769226" as="geometry"/>
                </mxCell>
                <mxCell id="772" value="" style="group" parent="771" vertex="1" connectable="0">
                    <mxGeometry width="228.8" height="392.30769230769226" as="geometry"/>
                </mxCell>
                <mxCell id="773" value="Movie Name" style="verticalLabelPosition=bottom;shadow=0;dashed=0;align=center;html=1;verticalAlign=top;strokeWidth=1;shape=mxgraph.mockup.graphics.simpleIcon;strokeColor=#999999;" parent="772" vertex="1">
                    <mxGeometry width="228.8" height="392.30769230769226" as="geometry"/>
                </mxCell>
                <mxCell id="774" value="Movie Poster" style="text;html=1;strokeColor=none;fillColor=none;align=center;verticalAlign=middle;whiteSpace=wrap;rounded=0;" parent="772" vertex="1">
                    <mxGeometry x="68.64" y="171.63461538461536" width="91.52000000000001" height="49.03846153846153" as="geometry"/>
                </mxCell>
                <mxCell id="775" value="" style="verticalLabelPosition=bottom;shadow=0;dashed=0;align=center;html=1;verticalAlign=top;strokeWidth=1;shape=mxgraph.mockup.graphics.simpleIcon;strokeColor=#999999;" parent="771" vertex="1">
                    <mxGeometry x="160.16" width="45.760000000000005" height="49.03846153846153" as="geometry"/>
                </mxCell>
                <mxCell id="776" value="" style="verticalLabelPosition=bottom;shadow=0;dashed=0;align=center;html=1;verticalAlign=top;strokeWidth=1;shape=mxgraph.mockup.graphics.simpleIcon;strokeColor=#999999;" parent="771" vertex="1">
                    <mxGeometry x="22.880000000000003" width="45.760000000000005" height="49.03846153846153" as="geometry"/>
                </mxCell>
                <mxCell id="777" value="" style="group" parent="740" vertex="1" connectable="0">
                    <mxGeometry width="228.8" height="392.30769230769226" as="geometry"/>
                </mxCell>
                <mxCell id="778" value="" style="group" parent="777" vertex="1" connectable="0">
                    <mxGeometry width="228.8" height="392.30769230769226" as="geometry"/>
                </mxCell>
                <mxCell id="779" value="Movie Name" style="verticalLabelPosition=bottom;shadow=0;dashed=0;align=center;html=1;verticalAlign=top;strokeWidth=1;shape=mxgraph.mockup.graphics.simpleIcon;strokeColor=#999999;" parent="778" vertex="1">
                    <mxGeometry width="228.8" height="392.30769230769226" as="geometry"/>
                </mxCell>
                <mxCell id="780" value="Movie Poster" style="text;html=1;strokeColor=none;fillColor=none;align=center;verticalAlign=middle;whiteSpace=wrap;rounded=0;" parent="778" vertex="1">
                    <mxGeometry x="68.64" y="171.63461538461536" width="91.52000000000001" height="49.03846153846153" as="geometry"/>
                </mxCell>
                <mxCell id="781" value="" style="verticalLabelPosition=bottom;shadow=0;dashed=0;align=center;html=1;verticalAlign=top;strokeWidth=1;shape=mxgraph.mockup.graphics.simpleIcon;strokeColor=#999999;" parent="777" vertex="1">
                    <mxGeometry x="160.16" width="45.760000000000005" height="49.03846153846153" as="geometry"/>
                </mxCell>
                <mxCell id="782" value="" style="verticalLabelPosition=bottom;shadow=0;dashed=0;align=center;html=1;verticalAlign=top;strokeWidth=1;shape=mxgraph.mockup.graphics.simpleIcon;strokeColor=#999999;" parent="777" vertex="1">
                    <mxGeometry x="22.880000000000003" width="45.760000000000005" height="49.03846153846153" as="geometry"/>
                </mxCell>
                <mxCell id="783" value="" style="group" parent="740" vertex="1" connectable="0">
                    <mxGeometry y="457.6923076923077" width="228.8" height="392.30769230769226" as="geometry"/>
                </mxCell>
                <mxCell id="784" value="" style="group" parent="783" vertex="1" connectable="0">
                    <mxGeometry width="228.8" height="392.30769230769226" as="geometry"/>
                </mxCell>
                <mxCell id="785" value="Movie Name" style="verticalLabelPosition=bottom;shadow=0;dashed=0;align=center;html=1;verticalAlign=top;strokeWidth=1;shape=mxgraph.mockup.graphics.simpleIcon;strokeColor=#999999;" parent="784" vertex="1">
                    <mxGeometry width="228.8" height="392.30769230769226" as="geometry"/>
                </mxCell>
                <mxCell id="786" value="Movie Poster" style="text;html=1;strokeColor=none;fillColor=none;align=center;verticalAlign=middle;whiteSpace=wrap;rounded=0;" parent="784" vertex="1">
                    <mxGeometry x="68.64" y="171.63461538461536" width="91.52000000000001" height="49.03846153846153" as="geometry"/>
                </mxCell>
                <mxCell id="787" value="" style="verticalLabelPosition=bottom;shadow=0;dashed=0;align=center;html=1;verticalAlign=top;strokeWidth=1;shape=mxgraph.mockup.graphics.simpleIcon;strokeColor=#999999;" parent="783" vertex="1">
                    <mxGeometry x="160.16" width="45.760000000000005" height="49.03846153846153" as="geometry"/>
                </mxCell>
                <mxCell id="788" value="" style="verticalLabelPosition=bottom;shadow=0;dashed=0;align=center;html=1;verticalAlign=top;strokeWidth=1;shape=mxgraph.mockup.graphics.simpleIcon;strokeColor=#999999;" parent="783" vertex="1">
                    <mxGeometry x="22.880000000000003" width="45.760000000000005" height="49.03846153846153" as="geometry"/>
                </mxCell>
                <mxCell id="789" value="Search" style="rounded=1;whiteSpace=wrap;html=1;glass=0;strokeColor=#f0f0f0;fillColor=#2a2a2a;gradientColor=none;verticalAlign=middle;" parent="676" vertex="1">
                    <mxGeometry x="300" y="130" width="1000" height="40" as="geometry"/>
                </mxCell>
                <mxCell id="790" value="" style="group" parent="1" vertex="1" connectable="0">
                    <mxGeometry x="4210" y="-1190" width="160" height="40" as="geometry"/>
                </mxCell>
                <mxCell id="791" value="" style="verticalLabelPosition=bottom;shadow=0;dashed=0;align=center;html=1;verticalAlign=top;strokeWidth=1;shape=mxgraph.mockup.graphics.simpleIcon;strokeColor=#999999;" parent="790" vertex="1">
                    <mxGeometry width="160" height="40" as="geometry"/>
                </mxCell>
                <mxCell id="792" value="" style="verticalLabelPosition=bottom;shadow=0;dashed=0;align=center;html=1;verticalAlign=top;strokeWidth=1;shape=mxgraph.mockup.graphics.simpleIcon;strokeColor=#999999;" parent="790" vertex="1">
                    <mxGeometry x="10" y="5" width="30" height="30" as="geometry"/>
                </mxCell>
                <mxCell id="793" value="Icon" style="text;html=1;strokeColor=none;fillColor=none;align=center;verticalAlign=middle;whiteSpace=wrap;rounded=0;" parent="790" vertex="1">
                    <mxGeometry x="5" y="10" width="40" height="20" as="geometry"/>
                </mxCell>
                <mxCell id="794" value="Username" style="text;html=1;strokeColor=none;fillColor=none;align=center;verticalAlign=middle;whiteSpace=wrap;rounded=0;" parent="790" vertex="1">
                    <mxGeometry x="60" y="10" width="70" height="20" as="geometry"/>
                </mxCell>
                <mxCell id="795" value="" style="verticalLabelPosition=bottom;shadow=0;dashed=0;align=center;html=1;verticalAlign=top;strokeWidth=1;shape=mxgraph.mockup.graphics.simpleIcon;strokeColor=#999999;" parent="1" vertex="1">
                    <mxGeometry x="3255" y="-1035" width="100" height="20" as="geometry"/>
                </mxCell>
                <mxCell id="796" value="Results" style="text;html=1;strokeColor=none;fillColor=none;align=center;verticalAlign=middle;whiteSpace=wrap;rounded=0;" parent="1" vertex="1">
                    <mxGeometry x="3250" y="-1035" width="110" height="20" as="geometry"/>
                </mxCell>
                <mxCell id="848" value="Result Failure View" style="shape=rect;strokeColor=none;fillColor=#008cff;strokeWidth=1;dashed=0;rounded=1;arcSize=20;fontColor=#ffffff;fontSize=17;spacing=2;spacingTop=-2;align=center;autosize=1;spacingLeft=4;resizeWidth=0;resizeHeight=0;perimeter=none;" parent="1" vertex="1">
                    <mxGeometry x="3560" y="200" width="170" height="30" as="geometry"/>
                </mxCell>
                <mxCell id="849" value="" style="strokeWidth=1;shadow=0;dashed=0;align=center;html=1;shape=mxgraph.mockup.containers.browserWindow;rSize=0;strokeColor=#666666;strokeColor2=#008cff;strokeColor3=#c4c4c4;mainText=,;recursiveResize=0;" parent="1" vertex="1">
                    <mxGeometry x="2880" y="290" width="1530" height="1410" as="geometry"/>
                </mxCell>
                <mxCell id="850" value="The Library" style="strokeWidth=1;shadow=0;dashed=0;align=center;html=1;shape=mxgraph.mockup.containers.anchor;fontSize=17;fontColor=#666666;align=left;" parent="849" vertex="1">
                    <mxGeometry x="60" y="12" width="110" height="26" as="geometry"/>
                </mxCell>
                <mxCell id="851" value="mov-lib.io" style="strokeWidth=1;shadow=0;dashed=0;align=center;html=1;shape=mxgraph.mockup.containers.anchor;rSize=0;fontSize=17;fontColor=#666666;align=left;" parent="849" vertex="1">
                    <mxGeometry x="130" y="60" width="250" height="26" as="geometry"/>
                </mxCell>
                <mxCell id="852" value="" style="shape=mxgraph.mockup.containers.marginRect;rectMarginTop=10;strokeColor=#666666;strokeWidth=1;dashed=0;rounded=1;arcSize=5;recursiveResize=0;" parent="849" vertex="1">
                    <mxGeometry y="100" width="270" height="1310" as="geometry"/>
                </mxCell>
                <mxCell id="853" value="" style="shape=mxgraph.mockup.containers.marginRect;rectMarginTop=10;strokeColor=#666666;strokeWidth=1;dashed=0;rounded=1;arcSize=5;recursiveResize=0;" parent="849" vertex="1">
                    <mxGeometry x="270" y="100" width="1260" height="90" as="geometry"/>
                </mxCell>
                <mxCell id="854" value="" style="group" parent="849" vertex="1" connectable="0">
                    <mxGeometry x="50" y="120" width="80" height="80" as="geometry"/>
                </mxCell>
                <mxCell id="855" value="" style="verticalLabelPosition=bottom;shadow=0;dashed=0;align=center;html=1;verticalAlign=top;strokeWidth=1;shape=mxgraph.mockup.graphics.simpleIcon;strokeColor=#999999;" parent="854" vertex="1">
                    <mxGeometry width="80" height="80" as="geometry"/>
                </mxCell>
                <mxCell id="856" value="Logo" style="text;html=1;strokeColor=none;fillColor=none;align=center;verticalAlign=middle;whiteSpace=wrap;rounded=0;" parent="854" vertex="1">
                    <mxGeometry x="20" y="30" width="40" height="20" as="geometry"/>
                </mxCell>
                <mxCell id="857" value="" style="verticalLabelPosition=bottom;shadow=0;dashed=0;align=center;html=1;verticalAlign=top;strokeWidth=1;shape=mxgraph.mockup.navigation.scrollBar;strokeColor=#999999;barPos=58.026;fillColor2=#99ddff;strokeColor2=none;direction=north;" parent="849" vertex="1">
                    <mxGeometry x="1510" y="190" width="20" height="1220" as="geometry"/>
                </mxCell>
                <mxCell id="858" value="" style="group" parent="849" vertex="1" connectable="0">
                    <mxGeometry x="35" y="340" width="160" height="40" as="geometry"/>
                </mxCell>
                <mxCell id="859" value="" style="verticalLabelPosition=bottom;shadow=0;dashed=0;align=center;html=1;verticalAlign=top;strokeWidth=1;shape=mxgraph.mockup.graphics.simpleIcon;strokeColor=#999999;" parent="858" vertex="1">
                    <mxGeometry width="160" height="40" as="geometry"/>
                </mxCell>
                <mxCell id="860" value="" style="verticalLabelPosition=bottom;shadow=0;dashed=0;align=center;html=1;verticalAlign=top;strokeWidth=1;shape=mxgraph.mockup.graphics.simpleIcon;strokeColor=#999999;" parent="858" vertex="1">
                    <mxGeometry x="10" y="5" width="30" height="30" as="geometry"/>
                </mxCell>
                <mxCell id="861" value="Icon" style="text;html=1;strokeColor=none;fillColor=none;align=center;verticalAlign=middle;whiteSpace=wrap;rounded=0;" parent="858" vertex="1">
                    <mxGeometry x="5" y="10" width="40" height="20" as="geometry"/>
                </mxCell>
                <mxCell id="862" value="Menu Item 2" style="text;html=1;strokeColor=none;fillColor=none;align=center;verticalAlign=middle;whiteSpace=wrap;rounded=0;" parent="858" vertex="1">
                    <mxGeometry x="60" y="10" width="70" height="20" as="geometry"/>
                </mxCell>
                <mxCell id="863" value="" style="group" parent="849" vertex="1" connectable="0">
                    <mxGeometry x="35" y="400" width="160" height="40" as="geometry"/>
                </mxCell>
                <mxCell id="864" value="" style="verticalLabelPosition=bottom;shadow=0;dashed=0;align=center;html=1;verticalAlign=top;strokeWidth=1;shape=mxgraph.mockup.graphics.simpleIcon;strokeColor=#999999;" parent="863" vertex="1">
                    <mxGeometry width="160" height="40" as="geometry"/>
                </mxCell>
                <mxCell id="865" value="" style="verticalLabelPosition=bottom;shadow=0;dashed=0;align=center;html=1;verticalAlign=top;strokeWidth=1;shape=mxgraph.mockup.graphics.simpleIcon;strokeColor=#999999;" parent="863" vertex="1">
                    <mxGeometry x="10" y="5" width="30" height="30" as="geometry"/>
                </mxCell>
                <mxCell id="866" value="Icon" style="text;html=1;strokeColor=none;fillColor=none;align=center;verticalAlign=middle;whiteSpace=wrap;rounded=0;" parent="863" vertex="1">
                    <mxGeometry x="5" y="10" width="40" height="20" as="geometry"/>
                </mxCell>
                <mxCell id="867" value="Menu Item 3" style="text;html=1;strokeColor=none;fillColor=none;align=center;verticalAlign=middle;whiteSpace=wrap;rounded=0;" parent="863" vertex="1">
                    <mxGeometry x="60" y="10" width="70" height="20" as="geometry"/>
                </mxCell>
                <mxCell id="868" value="" style="group" parent="849" vertex="1" connectable="0">
                    <mxGeometry x="35" y="460" width="160" height="40" as="geometry"/>
                </mxCell>
                <mxCell id="869" value="" style="verticalLabelPosition=bottom;shadow=0;dashed=0;align=center;html=1;verticalAlign=top;strokeWidth=1;shape=mxgraph.mockup.graphics.simpleIcon;strokeColor=#999999;" parent="868" vertex="1">
                    <mxGeometry width="160" height="40" as="geometry"/>
                </mxCell>
                <mxCell id="870" value="" style="verticalLabelPosition=bottom;shadow=0;dashed=0;align=center;html=1;verticalAlign=top;strokeWidth=1;shape=mxgraph.mockup.graphics.simpleIcon;strokeColor=#999999;" parent="868" vertex="1">
                    <mxGeometry x="10" y="5" width="30" height="30" as="geometry"/>
                </mxCell>
                <mxCell id="871" value="Icon" style="text;html=1;strokeColor=none;fillColor=none;align=center;verticalAlign=middle;whiteSpace=wrap;rounded=0;" parent="868" vertex="1">
                    <mxGeometry x="5" y="10" width="40" height="20" as="geometry"/>
                </mxCell>
                <mxCell id="872" value="Menu Item 4" style="text;html=1;strokeColor=none;fillColor=none;align=center;verticalAlign=middle;whiteSpace=wrap;rounded=0;" parent="868" vertex="1">
                    <mxGeometry x="60" y="10" width="70" height="20" as="geometry"/>
                </mxCell>
                <mxCell id="873" value="" style="group;rounded=0;" parent="849" vertex="1" connectable="0">
                    <mxGeometry x="35" y="520" width="160" height="40" as="geometry"/>
                </mxCell>
                <mxCell id="874" value="" style="verticalLabelPosition=bottom;shadow=0;dashed=0;align=center;html=1;verticalAlign=top;strokeWidth=1;shape=mxgraph.mockup.graphics.simpleIcon;strokeColor=#999999;" parent="873" vertex="1">
                    <mxGeometry width="160" height="40" as="geometry"/>
                </mxCell>
                <mxCell id="875" value="" style="verticalLabelPosition=bottom;shadow=0;dashed=0;align=center;html=1;verticalAlign=top;strokeWidth=1;shape=mxgraph.mockup.graphics.simpleIcon;strokeColor=#999999;" parent="873" vertex="1">
                    <mxGeometry x="10" y="5" width="30" height="30" as="geometry"/>
                </mxCell>
                <mxCell id="876" value="Icon" style="text;html=1;strokeColor=none;fillColor=none;align=center;verticalAlign=middle;whiteSpace=wrap;rounded=0;" parent="873" vertex="1">
                    <mxGeometry x="5" y="10" width="40" height="20" as="geometry"/>
                </mxCell>
                <mxCell id="877" value="Menu Item 5" style="text;html=1;strokeColor=none;fillColor=none;align=center;verticalAlign=middle;whiteSpace=wrap;rounded=0;" parent="873" vertex="1">
                    <mxGeometry x="60" y="10" width="70" height="20" as="geometry"/>
                </mxCell>
                <mxCell id="878" value="" style="group" parent="849" vertex="1" connectable="0">
                    <mxGeometry x="35" y="280" width="160" height="40" as="geometry"/>
                </mxCell>
                <mxCell id="879" value="" style="verticalLabelPosition=bottom;shadow=0;dashed=0;align=center;html=1;verticalAlign=top;strokeWidth=1;shape=mxgraph.mockup.graphics.simpleIcon;strokeColor=#999999;" parent="878" vertex="1">
                    <mxGeometry width="160" height="40" as="geometry"/>
                </mxCell>
                <mxCell id="880" value="" style="verticalLabelPosition=bottom;shadow=0;dashed=0;align=center;html=1;verticalAlign=top;strokeWidth=1;shape=mxgraph.mockup.graphics.simpleIcon;strokeColor=#999999;" parent="878" vertex="1">
                    <mxGeometry x="10" y="5" width="30" height="30" as="geometry"/>
                </mxCell>
                <mxCell id="881" value="Icon" style="text;html=1;strokeColor=none;fillColor=none;align=center;verticalAlign=middle;whiteSpace=wrap;rounded=0;" parent="878" vertex="1">
                    <mxGeometry x="5" y="10" width="40" height="20" as="geometry"/>
                </mxCell>
                <mxCell id="882" value="Menu Item 1" style="text;html=1;strokeColor=none;fillColor=none;align=center;verticalAlign=middle;whiteSpace=wrap;rounded=0;" parent="878" vertex="1">
                    <mxGeometry x="60" y="10" width="70" height="20" as="geometry"/>
                </mxCell>
                <mxCell id="883" value="" style="verticalLabelPosition=bottom;shadow=0;dashed=0;align=center;html=1;verticalAlign=top;strokeWidth=1;shape=mxgraph.mockup.graphics.simpleIcon;strokeColor=#999999;" parent="849" vertex="1">
                    <mxGeometry x="35" y="240" width="100" height="20" as="geometry"/>
                </mxCell>
                <mxCell id="884" value="Menu Header 1" style="text;html=1;strokeColor=none;fillColor=none;align=center;verticalAlign=middle;whiteSpace=wrap;rounded=0;" parent="849" vertex="1">
                    <mxGeometry x="30" y="240" width="110" height="20" as="geometry"/>
                </mxCell>
                <mxCell id="885" value="" style="group" parent="849" vertex="1" connectable="0">
                    <mxGeometry x="35" y="690" width="160" height="40" as="geometry"/>
                </mxCell>
                <mxCell id="886" value="" style="verticalLabelPosition=bottom;shadow=0;dashed=0;align=center;html=1;verticalAlign=top;strokeWidth=1;shape=mxgraph.mockup.graphics.simpleIcon;strokeColor=#999999;" parent="885" vertex="1">
                    <mxGeometry width="160" height="40" as="geometry"/>
                </mxCell>
                <mxCell id="887" value="" style="verticalLabelPosition=bottom;shadow=0;dashed=0;align=center;html=1;verticalAlign=top;strokeWidth=1;shape=mxgraph.mockup.graphics.simpleIcon;strokeColor=#999999;" parent="885" vertex="1">
                    <mxGeometry x="10" y="5" width="30" height="30" as="geometry"/>
                </mxCell>
                <mxCell id="888" value="Icon" style="text;html=1;strokeColor=none;fillColor=none;align=center;verticalAlign=middle;whiteSpace=wrap;rounded=0;" parent="885" vertex="1">
                    <mxGeometry x="5" y="10" width="40" height="20" as="geometry"/>
                </mxCell>
                <mxCell id="889" value="Menu Item 2" style="text;html=1;strokeColor=none;fillColor=none;align=center;verticalAlign=middle;whiteSpace=wrap;rounded=0;" parent="885" vertex="1">
                    <mxGeometry x="60" y="10" width="70" height="20" as="geometry"/>
                </mxCell>
                <mxCell id="890" value="" style="group" parent="849" vertex="1" connectable="0">
                    <mxGeometry x="35" y="750" width="160" height="40" as="geometry"/>
                </mxCell>
                <mxCell id="891" value="" style="verticalLabelPosition=bottom;shadow=0;dashed=0;align=center;html=1;verticalAlign=top;strokeWidth=1;shape=mxgraph.mockup.graphics.simpleIcon;strokeColor=#999999;" parent="890" vertex="1">
                    <mxGeometry width="160" height="40" as="geometry"/>
                </mxCell>
                <mxCell id="892" value="" style="verticalLabelPosition=bottom;shadow=0;dashed=0;align=center;html=1;verticalAlign=top;strokeWidth=1;shape=mxgraph.mockup.graphics.simpleIcon;strokeColor=#999999;" parent="890" vertex="1">
                    <mxGeometry x="10" y="5" width="30" height="30" as="geometry"/>
                </mxCell>
                <mxCell id="893" value="Icon" style="text;html=1;strokeColor=none;fillColor=none;align=center;verticalAlign=middle;whiteSpace=wrap;rounded=0;" parent="890" vertex="1">
                    <mxGeometry x="5" y="10" width="40" height="20" as="geometry"/>
                </mxCell>
                <mxCell id="894" value="Menu Item 3" style="text;html=1;strokeColor=none;fillColor=none;align=center;verticalAlign=middle;whiteSpace=wrap;rounded=0;" parent="890" vertex="1">
                    <mxGeometry x="60" y="10" width="70" height="20" as="geometry"/>
                </mxCell>
                <mxCell id="895" value="" style="group" parent="849" vertex="1" connectable="0">
                    <mxGeometry x="35" y="810" width="160" height="40" as="geometry"/>
                </mxCell>
                <mxCell id="896" value="" style="verticalLabelPosition=bottom;shadow=0;dashed=0;align=center;html=1;verticalAlign=top;strokeWidth=1;shape=mxgraph.mockup.graphics.simpleIcon;strokeColor=#999999;" parent="895" vertex="1">
                    <mxGeometry width="160" height="40" as="geometry"/>
                </mxCell>
                <mxCell id="897" value="" style="verticalLabelPosition=bottom;shadow=0;dashed=0;align=center;html=1;verticalAlign=top;strokeWidth=1;shape=mxgraph.mockup.graphics.simpleIcon;strokeColor=#999999;" parent="895" vertex="1">
                    <mxGeometry x="10" y="5" width="30" height="30" as="geometry"/>
                </mxCell>
                <mxCell id="898" value="Icon" style="text;html=1;strokeColor=none;fillColor=none;align=center;verticalAlign=middle;whiteSpace=wrap;rounded=0;" parent="895" vertex="1">
                    <mxGeometry x="5" y="10" width="40" height="20" as="geometry"/>
                </mxCell>
                <mxCell id="899" value="Menu Item 4" style="text;html=1;strokeColor=none;fillColor=none;align=center;verticalAlign=middle;whiteSpace=wrap;rounded=0;" parent="895" vertex="1">
                    <mxGeometry x="60" y="10" width="70" height="20" as="geometry"/>
                </mxCell>
                <mxCell id="900" value="" style="group" parent="849" vertex="1" connectable="0">
                    <mxGeometry x="35" y="870" width="160" height="40" as="geometry"/>
                </mxCell>
                <mxCell id="901" value="" style="verticalLabelPosition=bottom;shadow=0;dashed=0;align=center;html=1;verticalAlign=top;strokeWidth=1;shape=mxgraph.mockup.graphics.simpleIcon;strokeColor=#999999;" parent="900" vertex="1">
                    <mxGeometry width="160" height="40" as="geometry"/>
                </mxCell>
                <mxCell id="902" value="" style="verticalLabelPosition=bottom;shadow=0;dashed=0;align=center;html=1;verticalAlign=top;strokeWidth=1;shape=mxgraph.mockup.graphics.simpleIcon;strokeColor=#999999;" parent="900" vertex="1">
                    <mxGeometry x="10" y="5" width="30" height="30" as="geometry"/>
                </mxCell>
                <mxCell id="903" value="Icon" style="text;html=1;strokeColor=none;fillColor=none;align=center;verticalAlign=middle;whiteSpace=wrap;rounded=0;" parent="900" vertex="1">
                    <mxGeometry x="5" y="10" width="40" height="20" as="geometry"/>
                </mxCell>
                <mxCell id="904" value="Menu Item 5" style="text;html=1;strokeColor=none;fillColor=none;align=center;verticalAlign=middle;whiteSpace=wrap;rounded=0;" parent="900" vertex="1">
                    <mxGeometry x="60" y="10" width="70" height="20" as="geometry"/>
                </mxCell>
                <mxCell id="905" value="" style="group" parent="849" vertex="1" connectable="0">
                    <mxGeometry x="35" y="630" width="160" height="40" as="geometry"/>
                </mxCell>
                <mxCell id="906" value="" style="verticalLabelPosition=bottom;shadow=0;dashed=0;align=center;html=1;verticalAlign=top;strokeWidth=1;shape=mxgraph.mockup.graphics.simpleIcon;strokeColor=#999999;" parent="905" vertex="1">
                    <mxGeometry width="160" height="40" as="geometry"/>
                </mxCell>
                <mxCell id="907" value="" style="verticalLabelPosition=bottom;shadow=0;dashed=0;align=center;html=1;verticalAlign=top;strokeWidth=1;shape=mxgraph.mockup.graphics.simpleIcon;strokeColor=#999999;" parent="905" vertex="1">
                    <mxGeometry x="10" y="5" width="30" height="30" as="geometry"/>
                </mxCell>
                <mxCell id="908" value="Icon" style="text;html=1;strokeColor=none;fillColor=none;align=center;verticalAlign=middle;whiteSpace=wrap;rounded=0;" parent="905" vertex="1">
                    <mxGeometry x="5" y="10" width="40" height="20" as="geometry"/>
                </mxCell>
                <mxCell id="909" value="Menu Item 1" style="text;html=1;strokeColor=none;fillColor=none;align=center;verticalAlign=middle;whiteSpace=wrap;rounded=0;" parent="905" vertex="1">
                    <mxGeometry x="60" y="10" width="70" height="20" as="geometry"/>
                </mxCell>
                <mxCell id="910" value="" style="verticalLabelPosition=bottom;shadow=0;dashed=0;align=center;html=1;verticalAlign=top;strokeWidth=1;shape=mxgraph.mockup.graphics.simpleIcon;strokeColor=#999999;" parent="849" vertex="1">
                    <mxGeometry x="35" y="590" width="100" height="20" as="geometry"/>
                </mxCell>
                <mxCell id="911" value="Menu Header 2" style="text;html=1;strokeColor=none;fillColor=none;align=center;verticalAlign=middle;whiteSpace=wrap;rounded=0;" parent="849" vertex="1">
                    <mxGeometry x="30" y="590" width="110" height="20" as="geometry"/>
                </mxCell>
                <mxCell id="912" value="" style="shape=mxgraph.mockup.containers.marginRect;rectMarginTop=10;strokeColor=#666666;strokeWidth=1;dashed=0;rounded=1;arcSize=5;recursiveResize=0;" parent="849" vertex="1">
                    <mxGeometry x="270" y="180" width="1240" height="1230" as="geometry"/>
                </mxCell>
                <mxCell id="962" value="Search" style="rounded=1;whiteSpace=wrap;html=1;glass=0;strokeColor=#f0f0f0;fillColor=#2a2a2a;gradientColor=none;verticalAlign=middle;" parent="849" vertex="1">
                    <mxGeometry x="300" y="130" width="1000" height="40" as="geometry"/>
                </mxCell>
                <mxCell id="971" value="" style="verticalLabelPosition=bottom;shadow=0;dashed=0;align=center;html=1;verticalAlign=top;strokeWidth=1;shape=mxgraph.mockup.graphics.simpleIcon;strokeColor=#999999;rounded=1;glass=0;fillColor=#2a2a2a;gradientColor=none;" parent="849" vertex="1">
                    <mxGeometry x="300" y="300" width="1180" height="270" as="geometry"/>
                </mxCell>
                <mxCell id="970" value="Results&lt;br&gt;Movie Not Found" style="text;html=1;strokeColor=none;fillColor=none;align=center;verticalAlign=middle;whiteSpace=wrap;rounded=0;" parent="849" vertex="1">
                    <mxGeometry x="325" y="315" width="1135" height="235" as="geometry"/>
                </mxCell>
                <mxCell id="963" value="" style="group" parent="1" vertex="1" connectable="0">
                    <mxGeometry x="4210" y="420" width="160" height="40" as="geometry"/>
                </mxCell>
                <mxCell id="964" value="" style="verticalLabelPosition=bottom;shadow=0;dashed=0;align=center;html=1;verticalAlign=top;strokeWidth=1;shape=mxgraph.mockup.graphics.simpleIcon;strokeColor=#999999;" parent="963" vertex="1">
                    <mxGeometry width="160" height="40" as="geometry"/>
                </mxCell>
                <mxCell id="965" value="" style="verticalLabelPosition=bottom;shadow=0;dashed=0;align=center;html=1;verticalAlign=top;strokeWidth=1;shape=mxgraph.mockup.graphics.simpleIcon;strokeColor=#999999;" parent="963" vertex="1">
                    <mxGeometry x="10" y="5" width="30" height="30" as="geometry"/>
                </mxCell>
                <mxCell id="966" value="Icon" style="text;html=1;strokeColor=none;fillColor=none;align=center;verticalAlign=middle;whiteSpace=wrap;rounded=0;" parent="963" vertex="1">
                    <mxGeometry x="5" y="10" width="40" height="20" as="geometry"/>
                </mxCell>
                <mxCell id="967" value="Username" style="text;html=1;strokeColor=none;fillColor=none;align=center;verticalAlign=middle;whiteSpace=wrap;rounded=0;" parent="963" vertex="1">
                    <mxGeometry x="60" y="10" width="70" height="20" as="geometry"/>
                </mxCell>
                <mxCell id="973" value="" style="verticalLabelPosition=bottom;shadow=0;dashed=0;align=center;html=1;verticalAlign=top;strokeWidth=1;shape=mxgraph.mockup.graphics.simpleIcon;strokeColor=#999999;rounded=1;glass=0;fillColor=#2a2a2a;gradientColor=none;" parent="1" vertex="1">
                    <mxGeometry x="4190" y="900" width="170" height="50" as="geometry"/>
                </mxCell>
                <mxCell id="974" value="Back to home" style="text;html=1;strokeColor=none;fillColor=none;align=center;verticalAlign=middle;whiteSpace=wrap;rounded=0;glass=0;" parent="1" vertex="1">
                    <mxGeometry x="4202.5" y="915" width="145" height="20" as="geometry"/>
                </mxCell>
                <mxCell id="975" value="Likes" style="text;html=1;strokeColor=none;fillColor=none;align=center;verticalAlign=middle;whiteSpace=wrap;rounded=0;glass=0;" parent="1" vertex="1">
                    <mxGeometry x="2258" y="-645" width="40" height="20" as="geometry"/>
                </mxCell>
                <mxCell id="976" value="Dislikes" style="text;html=1;strokeColor=none;fillColor=none;align=center;verticalAlign=middle;whiteSpace=wrap;rounded=0;glass=0;" parent="1" vertex="1">
                    <mxGeometry x="2335" y="-645" width="40" height="20" as="geometry"/>
                </mxCell>
                <mxCell id="977" value="No. of Reviews" style="text;html=1;strokeColor=none;fillColor=none;align=center;verticalAlign=middle;whiteSpace=wrap;rounded=0;glass=0;" parent="1" vertex="1">
                    <mxGeometry x="2430" y="-645" width="40" height="20" as="geometry"/>
                </mxCell>
            </root>
        </mxGraphModel>
    </diagram>
    <diagram id="dYE7WCG_AQNmt5J4TBb_" name="Page-2">
        <mxGraphModel dx="916" dy="578" grid="1" gridSize="10" guides="1" tooltips="1" connect="1" arrows="1" fold="1" page="1" pageScale="1" pageWidth="827" pageHeight="1169" math="0" shadow="0">
            <root>
                <mxCell id="FrGHze1YOMP8f9CkMRbM-0"/>
                <mxCell id="FrGHze1YOMP8f9CkMRbM-1" parent="FrGHze1YOMP8f9CkMRbM-0"/>
            </root>
        </mxGraphModel>
    </diagram>
</mxfile>